<svg xmlns="http://www.w3.org/2000/svg" xmlns:xlink="http://www.w3.org/1999/xlink" width="768" height="600" viewBox="0 0 768 600"><defs><style>.a,.x{fill:#fff;}.a{stroke:#707070;}.b{clip-path:url(#a);}.c{opacity:0.7;}.d{opacity:0.65;}.e{opacity:0;}.f{fill:none;stroke:#fff;stroke-miterlimit:10;}.g{opacity:0.05;}.h{opacity:0.1;}.i{opacity:0.15;}.j{opacity:0.2;}.k{opacity:0.25;}.l{opacity:0.3;}.m{opacity:0.35;}.n{opacity:0.4;}.o{opacity:0.45;}.p{opacity:0.5;}.q{opacity:0.55;}.r{opacity:0.6;}.s,.x{opacity:0.75;}.t{opacity:0.8;}.u{opacity:0.85;}.v{opacity:0.9;}.w{opacity:0.95;}.x{font-size:61px;font-family:Gotham-Medium, Gotham;font-weight:500;}.y{fill:url(#b);}.z{fill:url(#c);}</style><clipPath id="a"><rect class="a" width="768" height="600" transform="translate(0 96)"/></clipPath><linearGradient id="b" x1="0.5" x2="0.5" y2="1" gradientUnits="objectBoundingBox"><stop offset="0" stop-color="#001428"/><stop offset="1" stop-color="#001428" stop-opacity="0"/></linearGradient><linearGradient id="c" y1="1" y2="0" xlink:href="#b"/></defs><g class="b" transform="translate(0 -96)"><g transform="translate(-299 3)"><g class="c" transform="translate(114 -259.562)"><g transform="translate(0 0)"><g class="d"><g class="e"><path class="f" d="M2829.776,66.313c-216.351-81.4-410.853-48.625-495.894,53.766-90.825,100.892-65.333,256.837,33.845,420.064,86.326,143.52,183.148,269.047,251.052,345.519,89.753,100.893,161.728,112.46,261.334,52.053,76.045-46.055,152.3-119.1,227.919-181.221,94.894-83.327,198.786-138.379,251.481-181.007,37.486-33.2,32.988-67.9-20.136-138.165-37.272-47.769-97.251-113.1-184.006-182.935C3069.69,185.628,2957.015,112.154,2829.776,66.313Z" transform="translate(-2277.836 -20.524)"/></g><g class="g" transform="translate(37.468 32.199)"><path class="f" d="M2811.727,76.136c-200.714-73.26-380.65-42.413-461.406,53.124-85.684,94.252-65.977,240.343,22.706,394.359,77.116,135.166,165.8,253.838,230.274,326.455,84.827,95.752,155.73,108.176,251.7,52.7,73.689-42.2,146.733-110.746,218.494-169.868,89.967-79.257,187.218-134.523,236.057-178.865,34.917-34.273,29.99-69.832-20.778-136.237-35.558-45.2-92.324-106.034-173.509-170.082C3034.719,184.1,2929.756,117.478,2811.727,76.136Z" transform="translate(-2295.327 -35.556)"/></g><g class="h" transform="translate(73.634 63.271)"><path class="f" d="M2794.158,85.7c-185.719-65.548-351.732-36.416-427.99,52.481-80.757,87.826-66.19,224.491,12.639,369.3,68.546,127.026,149.732,238.843,210.353,307.6,80.114,90.61,149.518,104.106,242.057,53.338,70.9-38.772,140.949-102.606,208.854-158.729,85.255-75.187,175.865-130.239,221.063-176.294,32.131-35.345,26.777-71.332-21.42-134.309C3175.237,317.263,3015.651,163.675,2794.158,85.7Z" transform="translate(-2312.21 -50.061)"/></g><g class="i" transform="translate(108.246 93.489)"><path class="f" d="M2777.2,95.3c-171.367-58.479-324.1-30.846-396.072,51.839-75.83,81.614-65.763,208.854,3.641,344.663,60.408,118.886,134.309,223.848,191.717,288.968,75.4,85.469,143.306,99.822,232.2,53.767,68.332-35.13,135.166-94.466,199.214-147.8,80.329-71.118,164.727-125.741,206.07-172.867,29.56-35.987,23.563-72.188-22.064-131.739C3130.649,304.151,2981.56,164.7,2777.2,95.3Z" transform="translate(-2328.368 -64.168)"/></g><g class="j" transform="translate(141.595 122.658)"><path class="f" d="M2760.924,104.593c-157.445-51.624-297.751-25.491-365.441,50.982-70.9,75.616-65.12,194.073-4.285,320.885,53.125,111.174,120.171,209.282,173.937,270.546,70.69,80.543,136.88,95.537,221.921,53.767,65.548-31.917,129.168-86.755,189.361-137.094,75.615-67.047,153.8-121.028,191.5-169.011,26.777-36.416,20.564-72.831-22.706-128.954C3087.593,292.455,2948.572,166.071,2760.924,104.593Z" transform="translate(-2343.937 -77.785)"/></g><g class="k" transform="translate(173.643 150.92)"><path class="f" d="M2745.121,113.945c-144.377-45.412-272.689-20.778-335.881,50.125-66.4,70.046-64.048,179.507-10.925,297.536,46.055,103.249,106.891,194.716,157.229,252.338,66.191,75.616,130.454,91.253,211.639,53.767,62.549-28.49,122.956-79.043,179.508-126.6,71.118-63.192,143.092-116.1,177.15-164.513,24.206-36.63,17.78-72.831-23.135-125.527C3045.871,281.885,2917.13,167.926,2745.121,113.945Z" transform="translate(-2358.898 -90.979)"/></g><g class="l" transform="translate(204.384 178.614)"><path class="f" d="M2730.017,123.171C2598.278,83.756,2481.535,107.1,2422.2,172.439c-61.693,64.477-62.548,165.584-16.708,274.83,39.844,95.752,94.467,180.578,141.378,234.559,61.693,70.689,123.6,86.755,200.929,53.552,59.55-25.491,116.958-71.76,169.653-116.316,66.4-59.122,132.594-110.96,163.228-159.372,21.848-36.63,14.994-72.617-23.563-121.885C3005.7,272.26,2886.818,170.082,2730.017,123.171Z" transform="translate(-2373.249 -103.907)"/></g><g class="m" transform="translate(234.019 205.225)"><path class="f" d="M2715.287,132.331c-119.528-34.059-225.776-11.781-280.615,48.2-57.193,59.336-60.835,152.089-21.634,252.981,34.059,88.254,82.9,166.655,126.6,216.994,57.193,65.976,116.744,82.471,190,53.124,56.551-22.492,110.532-64.691,159.8-106.248,62.12-55.052,122.527-105.605,149.517-153.8,19.279-36.2,12.21-71.76-23.777-117.815C2966.984,264.07,2857.737,172.817,2715.287,132.331Z" transform="translate(-2387.083 -116.33)"/></g><g class="n" transform="translate(262.431 230.803)"><path class="f" d="M2701.209,141.4c-108.176-29.133-203.927-8.14-254.909,46.7-52.7,54.409-58.479,139.236-25.49,231.56,28.918,80.971,72.4,152.945,112.887,199.643,52.91,61.05,109.89,77.758,178.865,52.267,53.338-19.493,104.105-57.837,149.731-96.394,57.622-51.2,112.46-100.035,136.452-147.59,16.922-35.773,9.639-70.475-23.778-113.317C2929.771,257.073,2829.735,176.1,2701.209,141.4Z" transform="translate(-2400.348 -128.271)"/></g><g class="o" transform="translate(289.754 255.67)"><path class="f" d="M2687.5,150.42c-97.251-24.634-183.363-4.713-230.06,45.412-48.412,49.482-56.123,126.6-28.275,210.782,24.2,73.688,62.549,139.664,99.822,182.72,48.624,56.337,102.819,73.259,167.725,51.2,50.125-16.922,97.466-51.2,139.663-86.969,53.125-47.126,102.821-94.038,123.6-140.735,14.78-34.916,7.282-68.547-23.778-108.176C2893.781,251.1,2802.957,179.766,2687.5,150.42Z" transform="translate(-2413.103 -139.879)"/></g><g class="p" transform="translate(316.048 280.071)"><path class="f" d="M2674.336,159.473c-86.753-20.35-163.654-1.714-206.5,43.484-44.127,44.984-53.124,114.6-30.417,190.86,19.922,66.833,53.552,126.6,87.826,166.226,44.342,51.624,95.538,68.547,155.944,49.7,46.911-14.352,90.825-44.984,129.6-77.972,48.839-43.27,93.4-88.04,111.174-133.452,12.638-33.845,4.927-66.191-23.563-102.82C2859.414,246.228,2777.372,183.679,2674.336,159.473Z" transform="translate(-2425.378 -151.271)"/></g><g class="q" transform="translate(341.22 303.383)"><path class="f" d="M2661.559,168.465c-76.9-16.708-145.02.643-184.006,41.557-40.057,40.485-49.911,102.82-31.489,171.367,16.066,59.978,45.627,113.745,76.472,149.946,40.271,47.126,88.041,63.62,144.164,47.983,43.483-12,84.184-38.986,119.314-68.975,44.554-39.414,84.184-81.828,99.178-125.312,10.711-32.346,3-63.406-23.134-97.037C2826.286,242.582,2752.812,188.387,2661.559,168.465Z" transform="translate(-2437.128 -162.153)"/></g><g class="r" transform="translate(365.314 326.072)"><path class="f" d="M2649.141,177.361c-67.476-13.281-127.455,2.785-162.585,39.414-35.986,36.2-46.483,91.682-31.7,152.731,12.638,53.552,38.129,101.535,65.976,134.095,36.2,42.628,80.544,58.479,132.167,45.841,40.057-9.854,77.115-33.417,109.032-60.621,40.485-35.559,75.188-75.4,87.612-116.744,8.783-30.846,1.071-60.193-22.706-90.611C2794.588,239.91,2729.47,193.212,2649.141,177.361Z" transform="translate(-2448.377 -172.746)"/></g><g class="d" transform="translate(388.605 348.149)"><path class="f" d="M2637.364,186.368c-58.693-10.5-110.745,4.5-142.234,36.844-32.131,32.131-42.842,80.757-31.489,134.523,9.854,47.126,31.489,89.54,56.337,118.672,32.346,38.129,72.832,53.338,119.742,43.27,36.417-7.712,70.046-28.276,98.751-52.481,36.2-31.7,66.619-68.761,76.472-107.747,7.069-28.918-.428-56.337-21.849-83.756C2764.178,238.421,2706.769,198.792,2637.364,186.368Z" transform="translate(-2459.25 -183.052)"/></g><g class="c" transform="translate(411.012 369.592)"><path class="f" d="M2625.634,195.285c-50.34-7.926-95.108,5.784-122.742,34.059-28.062,28.061-38.772,70.475-30.417,117.172,7.282,40.914,25.49,77.972,47.554,103.677,28.49,33.631,65.118,48.2,107.319,40.271,32.774-6,62.977-23.349,88.253-44.984,32.132-28.061,58.265-61.906,65.977-98.108,5.355-26.776-1.714-52.053-20.564-76.473C2734.88,237.7,2685.4,204.5,2625.634,195.285Z" transform="translate(-2469.71 -193.062)"/></g><g class="s" transform="translate(432.569 390.119)"><path class="f" d="M2614.354,204.048c-42.414-5.784-80.329,6.641-104.321,31.06-24.42,24.206-34.7,60.407-28.49,100.25,5.141,34.916,20.35,66.619,39.2,89.111,24.635,29.132,57.409,42.842,94.681,37.058,28.92-4.284,55.694-19.065,77.758-37.7,28.062-24.42,50.126-54.838,55.695-87.826,4.07-24.42-2.785-47.34-19.279-68.547C2706.893,238.322,2664.692,210.9,2614.354,204.048Z" transform="translate(-2479.773 -202.645)"/></g><g class="t" transform="translate(453.787 410.454)"><path class="f" d="M2603.471,212.914c-35.131-3.856-66.406,6.855-86.756,27.633s-30.2,50.768-26.133,84.184A145.2,145.2,0,0,0,2522.5,399.7c20.778,24.848,49.482,37.272,81.614,33.2,25.063-3,48.2-14.995,67.047-30.846,23.991-20.564,42.2-47.554,46.269-76.9,2.785-21.635-3.427-41.985-17.564-60.193C2680.157,239.476,2644.813,217.412,2603.471,212.914Z" transform="translate(-2489.678 -212.138)"/></g><g class="u" transform="translate(473.798 430.144)"><path class="f" d="M2592.8,221.694c-28.276-2.356-53.337,6.855-70.261,23.777s-25.49,41.556-23.135,68.547a112.441,112.441,0,0,0,25.063,61.478c17.137,20.564,41.342,31.489,68.546,28.918a104.156,104.156,0,0,0,56.338-24.634c20.136-17.137,34.7-40.271,37.272-65.548a71.454,71.454,0,0,0-15.637-51.624C2654.706,241.616,2626.216,224.479,2592.8,221.694Z" transform="translate(-2499.021 -221.33)"/></g><g class="v" transform="translate(493.478 449.166)"><path class="f" d="M2582.522,230.4a71,71,0,0,0-54.624,19.922,69.562,69.562,0,0,0-19.493,53.767,84.252,84.252,0,0,0,18.85,48.2,65.655,65.655,0,0,0,55.267,24.206,79.938,79.938,0,0,0,45.626-18.636c16.065-13.5,27.2-32.56,28.7-53.767a63.138,63.138,0,0,0-13.281-42.413A84.682,84.682,0,0,0,2582.522,230.4Z" transform="translate(-2508.208 -230.21)"/></g><g class="w" transform="translate(512.526 467.942)"><path class="f" d="M2572.366,239.028a52.859,52.859,0,0,0-55.266,50.125h0v4.713a59.6,59.6,0,0,0,13.28,35.559,52.507,52.507,0,0,0,41.772,19.065,57.829,57.829,0,0,0,55.265-54.623,49.7,49.7,0,0,0-10.711-32.56A58.06,58.06,0,0,0,2572.366,239.028Z" transform="translate(-2517.1 -238.975)"/></g><path class="f" d="M2562.43,247.5a36.613,36.613,0,0,0-36.63,36.63h0a36.614,36.614,0,0,0,36.63,36.63h0a36.614,36.614,0,0,0,36.63-36.63h0c0-20.136-16.494-36.416-36.63-36.63Z" transform="translate(-1994.638 238.703)"/></g></g></g><text class="x" transform="translate(683 286)"><tspan x="-16.5" y="0">?</tspan></text></g><rect class="y" width="600" height="187.5" transform="translate(0 696) rotate(-90)"/><rect class="z" width="600" height="187.5" transform="translate(580.5 696) rotate(-90)"/></g></svg>