<?xml version="1.0" encoding="utf-8"?>
<!-- Generator: Adobe Illustrator 24.3.0, SVG Export Plug-In . SVG Version: 6.00 Build 0)  -->
<svg version="1.1" id="Layer_1" xmlns="http://www.w3.org/2000/svg" xmlns:xlink="http://www.w3.org/1999/xlink" x="0px" y="0px"
	 viewBox="0 0 322 60" style="enable-background:new 0 0 322 60;" xml:space="preserve">
<style type="text/css">
	.st0{clip-path:url(#SVGID_2_);}
	.st1{fill:#8DC6EC;}
</style>
<g>
	<defs>
		<rect id="SVGID_1_" y="0" width="322" height="60"/>
	</defs>
	<clipPath id="SVGID_2_">
		<use xlink:href="#SVGID_1_"  style="overflow:visible;"/>
	</clipPath>
	<g id="Mask_Group_1577" class="st0">
		<g id="Group_1727" transform="translate(4 0.746)">
			<g id="Group_6">
				<g id="Group_4" transform="translate(60.25)">
					<g id="Group_1" transform="translate(0 13.661)">
						<path id="Path_1" d="M20,33.2c-6.8,0-11.8-5.3-11.8-12.9S13.1,7.3,20,7.3s11.8,5.3,11.8,12.9S26.9,33.2,20,33.2 M20,0
							C8.6,0,0,8.8,0,20.4c0,11.5,8.6,20.3,20,20.3c11,0.2,20-8.6,20.1-19.6c0-0.2,0-0.5,0-0.7C40.1,8.8,31.5,0,20,0"/>
					</g>
					<g id="Group_2" transform="translate(72.76 13.661)">
						<path id="Path_2" d="M20,33.2c-6.8,0-11.8-5.3-11.8-12.9S13.1,7.3,20,7.3s11.8,5.3,11.8,12.9S26.9,33.2,20,33.2 M20,0
							C8.6,0,0,8.8,0,20.4c0,11.5,8.6,20.3,20,20.3c11,0.1,20-8.6,20.1-19.6c0-0.2,0-0.5,0-0.7C40.1,8.8,31.5,0,20,0"/>
					</g>
					<g id="Group_3" transform="translate(43.282)">
						<path id="Path_3" d="M15.7,0H7.6v14.5H0v7.3h7.6v17.5c0,8.3,5,13.8,12.7,13.8c1.6,0,3.2-0.1,4.7-0.3v-7.3c0,0-1.9,0.1-3.2,0.1
							h-1.6c-3.9-0.1-4.6-3.5-4.6-6V22H25v-7.3h-9.3V0z"/>
					</g>
				</g>
				<g id="Group_5" transform="translate(0 13.661)">
					<path id="Path_4" d="M38.4,0L38.4,0c-4.3-0.1-8.5,1.5-11.5,4.6C23.8,1.5,19.6-0.1,15.2,0C6.2,0,0,6.2,0,15.4v24.3h7.8V15.1
						c0-4.5,2.9-7.5,7.5-7.5c4.5,0,7.6,3,7.6,7.5v24.6h7.8V15.4c0-1.2-0.1-2.3-0.3-3.5c1.6-2.8,4.6-4.5,7.8-4.5
						c3.9-0.2,7.3,2.8,7.5,6.7c0,0.3,0,0.5,0,0.8v24.6h7.8V15.4C53.8,6.2,47.6,0,38.4,0"/>
				</g>
			</g>
			<g id="Group_7" transform="translate(179.024 13.661)">
				<path id="Path_5" class="st1" d="M0,20.3C0,8.6,8.8,0,19.7,0c7.6,0,14.5,4.4,17.7,11.4l-3.5,1.7c-2.3-5.8-8-9.7-14.2-9.6
					c-9.3,0-15.8,7.5-15.8,17s6.5,17,15.8,17c6.3,0,11.9-3.8,14.2-9.6l3.5,1.7c-3.1,7-10,11.5-17.7,11.4C8.6,40.5,0,32.1,0,20.3z"/>
				<path id="Path_6" class="st1" d="M67.7,12.4c0-6.5-5-8.9-10.6-8.9c-4.2,0-8.3,1.5-11.5,4.3l-2-2.9c3.8-3.2,8.6-4.8,13.5-4.7
					c8.5,0,14.4,4.6,14.4,12.5v27h-3.9v-5.3c-2,3.9-7.2,6.5-12.7,6.5c-8.2,0-13.9-4.5-13.9-11.6c0-6.6,4.9-10.6,12.2-10.6h9.5
					c3.2,0,5-1.7,5-4.2v-1.9L67.7,12.4z M67.7,26.3v-6.8c-1.3,1.9-3.6,2-5.5,2h-8.5c-6,0-8.5,3.5-8.5,7.5c0,3.5,2.4,8.3,10.4,8.3
					C61.8,37.4,67.7,33.5,67.7,26.3z"/>
				<path id="Path_7" class="st1" d="M96.8,4.5h-2.3c-6.5,0-9.6,3.9-9.6,14.1v20.9h-3.7V1.2h3.6v7c0.9-3.7,3.9-7.3,10.2-7.3
					c0.7,0,1.3,0,2,0.1L96.8,4.5L96.8,4.5z"/>
				<path id="Path_8" class="st1" d="M100.8,21.6c0.4,8.9,6.8,15.8,15.7,15.8c5.9,0.1,11.2-3.2,13.8-8.5h4.2
					c-3,7.3-10.1,11.9-18,11.8c-10.8,0-19.6-8.5-19.6-20.3c0-11.6,8.8-20.3,19.6-20.3c10.2,0,19.4,7.5,19.4,21.1v0.1h-35.1V21.6z
					 M100.9,18.3h31.2c-0.9-8.5-6.9-15-15.5-15C108,3.5,101.8,9.8,100.9,18.3z"/>
			</g>
		</g>
	</g>
</g>
</svg>
