<?xml version="1.0" encoding="utf-8"?>
<!-- Generator: Adobe Illustrator 23.0.3, SVG Export Plug-In . SVG Version: 6.00 Build 0)  -->
<svg version="1.1" id="Layer_1" xmlns="http://www.w3.org/2000/svg" xmlns:xlink="http://www.w3.org/1999/xlink" x="0px" y="0px"
	 viewBox="0 0 378.4 96.1" style="enable-background:new 0 0 378.4 96.1;" xml:space="preserve">
<style type="text/css">
	.st0{fill:#35D4C8;}
</style>
<title>moto-g7-plus-logo_000000</title>
<g>
	<g>
		<g>
			<g>
				<path class="st0" d="M89,62.7c-7.4,0-12.8-5.8-12.8-14.1S81.5,34.5,89,34.5c7.5,0,12.8,5.8,12.8,14.1S96.5,62.7,89,62.7
					 M89,26.5c-12.4,0-21.8,9.6-21.8,22.2c0,12.5,9.4,22.1,21.8,22.1S111,61.2,111,48.7C111,36,101.6,26.5,89,26.5"/>
			</g>
			<g>
				<path class="st0" d="M168.3,62.7c-7.4,0-12.8-5.8-12.8-14.1s5.3-14.1,12.8-14.1c7.5,0,12.8,5.8,12.8,14.1S175.8,62.7,168.3,62.7
					 M168.3,26.5c-12.4,0-21.8,9.6-21.8,22.2c0,12.5,9.4,22.1,21.8,22.1c12.4,0,21.9-9.6,21.9-22.1C190.2,36,180.8,26.5,168.3,26.5"
					/>
			</g>
			<g>
				<path class="st0" d="M131.5,11.6h-8.8v15.8h-8.3v8h8.3v19.1c0,9.1,5.5,15,13.8,15c2.8,0,5.2-0.3,5.2-0.3v-8c0,0-2,0.2-3.4,0.2
					c-0.6,0-1.1,0-1.7,0c-4.2-0.2-5-3.8-5-6.6V35.6h10.2v-8h-10.2V11.6L131.5,11.6z"/>
			</g>
		</g>
		<g>
			<path class="st0" d="M43.5,26.5L43.5,26.5c-5.2,0-9.6,1.9-12.5,5c-3-3.1-7.5-5-12.7-5c-9.9,0-16.6,6.7-16.6,16.8v26.5h8.5V42.9
				c0-4.9,3.1-8.1,8.1-8.1c4.9,0,8.3,3.3,8.3,8.1v26.8H35V43.2c0-1.4-0.2-2.5-0.3-3.8c1.6-3,4.9-4.9,8.5-4.9c4.9,0,8.1,3.3,8.1,8.1
				v26.8h8.5V43.2C60.2,33.2,53.5,26.5,43.5,26.5"/>
		</g>
	</g>
	<g>
		<path d="M198.4,48.6c0-12.7,9.6-22.1,21.5-22.1c8.5,0,15.8,4.9,19.3,12.4l-3.8,1.9c-2.7-6.3-8.3-10.5-15.5-10.5
			c-10.2,0-17.2,8.1-17.2,18.5s7,18.5,17.2,18.5c7.2,0,12.8-4.4,15.5-10.5l3.8,1.9c-3.3,7.5-10.6,12.4-19.3,12.4
			C207.8,70.6,198.4,61.4,198.4,48.6z"/>
		<path d="M272.2,39.9c0-7-5.5-9.7-11.6-9.7c-5.3,0-9.7,2.2-12.5,4.7l-2.2-3.1c2.4-2.2,7.7-5.2,14.7-5.2c9.2,0,15.7,5,15.7,13.6
			v29.4h-4.2v-5.8c-2.2,4.2-7.8,7-13.8,7c-8.9,0-15.2-4.9-15.2-12.7c0-7.2,5.3-11.6,13.3-11.6h10.3c3.4,0,5-1.9,5-4.5v-2h0.5
			L272.2,39.9L272.2,39.9z M272.2,55.1v-7.4c-1.4,2-3.9,2.2-6,2.2H257c-6.6,0-9.2,3.8-9.2,8.1c0,3.8,2.7,9.1,11.3,9.1
			C265.8,67.2,272.2,63,272.2,55.1z"/>
		<path d="M303.8,31.3h-2.5c-7,0-10.5,4.2-10.5,15.4v22.7h-4.1V27.7h3.9v7.7c0.9-4.1,4.2-8,11.1-8c0.6,0,1.4,0,2.2,0.2L303.8,31.3
			L303.8,31.3z"/>
		<path d="M308.2,50c0.5,9.7,7.4,17.2,17.1,17.2c6.9,0,12.2-3.8,15-9.2h4.5c-3.3,7.8-10.6,12.8-19.6,12.8
			c-11.7,0-21.3-9.2-21.3-22.1c0-12.7,9.6-22.1,21.3-22.1c11.1,0,21.1,8.1,21.1,23v0.2h-38.2V50z M308.4,46.4h34
			c-0.9-9.2-7.5-16.3-16.9-16.3C316,30.2,309.3,37.1,308.4,46.4z"/>
	</g>
</g>
</svg>
