
<svg xmlns="http://www.w3.org/2000/svg" xmlns:xlink="http://www.w3.org/1999/xlink" width="1920" height="251" viewBox="0 0 1920 251"><defs><filter id="a" x="754" y="54.221" width="384.972" height="146.205" filterUnits="userSpaceOnUse"><feOffset dy="3" input="SourceAlpha"/><feGaussianBlur stdDeviation="3" result="b"/><feFlood flood-opacity="0.161"/><feComposite operator="in" in2="b"/><feComposite in="SourceGraphic"/></filter><linearGradient id="c" x1="-0.185" y1="-0.022" x2="0.902" y2="0.829" gradientUnits="objectBoundingBox"><stop offset="0.367" stop-color="#4c7534"/><stop offset="1" stop-color="#6fb749" stop-opacity="0"/></linearGradient></defs><g transform="translate(2843 135)"><rect width="1920" height="251" transform="translate(-2843 -135)" fill="#8ad055"/><g transform="translate(-3147 -128.602)"><g transform="translate(1067 53.822)"><g transform="matrix(1, 0, 0, 1, -763, -60.22)" filter="url(#a)"><rect width="366.972" height="128.205" rx="22.76" transform="translate(763 60.22)" fill="#fff"/></g></g><g transform="translate(1185.173 133.334)"><g transform="translate(0 0)"><path d="M1194.363,104.671a5.88,5.88,0,0,1,4.96-2.149,5.582,5.582,0,0,1,4.714,2.457c.5-.455.92-.89,1.391-1.271a4.876,4.876,0,0,1,2.592-1.073,12.4,12.4,0,0,1,2.76.012,6.922,6.922,0,0,1,1.935.669,5.174,5.174,0,0,1,2.388,2.319,11.2,11.2,0,0,1,.761,1.944,12.086,12.086,0,0,1,.308,3.756q0,4.509,0,9.017c0,.566,0,.57-.563.57-1.184,0-2.368-.009-3.553.007-.377.005-.494-.131-.494-.5.011-3.317,0-6.636.007-9.955a4.805,4.805,0,0,0-.52-2.33,2.267,2.267,0,0,0-1.554-1.2,3.152,3.152,0,0,0-3.553,1.136,3.879,3.879,0,0,0-.708,2.234c-.039,2.381-.032,4.764-.039,7.144,0,.975,0,1.952,0,2.928,0,.526-.014.54-.556.542h-3.473c-.572,0-.573,0-.573-.561,0-3.241.012-6.481-.013-9.722a8.882,8.882,0,0,0-.255-1.917,2.546,2.546,0,0,0-2.282-1.875,3.151,3.151,0,0,0-3.085,1.253,3.922,3.922,0,0,0-.722,2.229c-.039,2.057-.026,4.112-.03,6.169,0,1.3,0,2.6,0,3.9,0,.5-.021.519-.5.519-1.211,0-2.422-.007-3.632.007-.349,0-.482-.108-.482-.471q.014-8.452.007-16.905c0-.524.063-.579.584-.579q1.736,0,3.474,0c.468,0,.533.062.543.543.007.368,0,.736,0,1.1Z" transform="translate(-1090.758 -95.827)" fill="#757575"/><path d="M1177.384,104.744a5.912,5.912,0,0,1,5.011-2.222,5.577,5.577,0,0,1,4.719,2.457c.492-.453.922-.88,1.386-1.266a4.731,4.731,0,0,1,2.513-1.064,12.811,12.811,0,0,1,2.876,0,6.555,6.555,0,0,1,1.9.66,5.111,5.111,0,0,1,2.367,2.287,12.464,12.464,0,0,1,.793,2.014,11.918,11.918,0,0,1,.3,3.716q.008,4.509,0,9.019c0,.572,0,.575-.558.575-1.172,0-2.342,0-3.514,0-.508,0-.533-.027-.533-.527q0-4.976,0-9.955a4.868,4.868,0,0,0-.5-2.257,2.3,2.3,0,0,0-1.533-1.232c-1.841-.439-3.613.191-4.093,2.285a9.928,9.928,0,0,0-.241,2.119c-.026,3.006-.011,6.011-.011,9.017,0,.533-.018.549-.549.551-1.184,0-2.368,0-3.553,0-.481,0-.5-.021-.5-.512q0-5,0-9.994a4.524,4.524,0,0,0-.535-2.322,2.319,2.319,0,0,0-1.545-1.159,3.264,3.264,0,0,0-3.305.859,4.146,4.146,0,0,0-.968,2.415,9.506,9.506,0,0,0-.032,1.209q-.005,4.511,0,9.019c0,.372-.118.5-.5.5q-1.816-.029-3.631,0c-.379.007-.49-.131-.49-.5q.013-8.414.007-16.825c0-.584.048-.628.615-.628,1.158,0,2.315.014,3.473-.009.387-.007.515.159.513.5,0,.246-.005.494.009.74A4.364,4.364,0,0,0,1177.384,104.744Z" transform="translate(-1103.79 -95.827)" fill="#757575"/><path d="M1246.957,111.316v11.869c0,.595-.046.639-.648.641-1.145,0-2.29,0-3.436,0-.524,0-.579-.064-.582-.584,0-.287.007-.574-.013-.859a1.048,1.048,0,0,0-.127-.306.983.983,0,0,0-.283.14,7.323,7.323,0,0,1-6.553,2,8.313,8.313,0,0,1-5.5-3.223,9.47,9.47,0,0,1-1.421-2.574,9.947,9.947,0,0,1-.5-5.105,9.194,9.194,0,0,1,3.686-6.273,8.439,8.439,0,0,1,6.693-1.467,6.457,6.457,0,0,1,3.56,1.883,1.467,1.467,0,0,0,.306.182,1.438,1.438,0,0,0,.145-.37c.023-.273.009-.547.009-.82q0-3.553,0-7.105c0-.513.065-.582.588-.584q1.758-.005,3.514,0c.489,0,.561.08.561.574Q1246.958,105.324,1246.957,111.316Zm-4.693,3.583.094-.012a16.077,16.077,0,0,0-.4-1.889,4.537,4.537,0,0,0-3.928-3.14,4.953,4.953,0,0,0-2.986.5,4.573,4.573,0,0,0-2.583,3.691,5.32,5.32,0,0,0,.552,3.358,4.711,4.711,0,0,0,2.34,2.122,5.338,5.338,0,0,0,2.873.3A4.438,4.438,0,0,0,1241,118.4,4.84,4.84,0,0,0,1242.264,114.9Z" transform="translate(-1061.355 -98.728)" fill="#757575"/><path d="M1151.119,113.887q-3.1,0-6.206,0c-.556,0-.6.112-.384.62a4.185,4.185,0,0,0,2.51,2.356,6.078,6.078,0,0,0,3.418.26,4.792,4.792,0,0,0,2.609-1.37.452.452,0,0,1,.664-.089c.965.582,1.956,1.119,2.933,1.68a.377.377,0,0,1,.129.641,8.435,8.435,0,0,1-3.553,2.691,10.807,10.807,0,0,1-6.543.48,8.764,8.764,0,0,1-5.847-4.059,10.194,10.194,0,0,1,.221-10.6,8.656,8.656,0,0,1,2.875-2.689,9.689,9.689,0,0,1,6.7-1.128,8.28,8.28,0,0,1,5.666,3.7,9.855,9.855,0,0,1,1.552,6.946c-.071.556-.071.558-.616.558Q1154.183,113.888,1151.119,113.887Zm-2.323-3.62q1.989,0,3.98,0c.474,0,.559-.11.417-.563a3.941,3.941,0,0,0-.274-.643,4.1,4.1,0,0,0-2.526-2.167,5.169,5.169,0,0,0-3.723.255,4.213,4.213,0,0,0-2.261,2.538c-.168.462-.055.577.448.579Q1146.828,110.27,1148.8,110.267Z" transform="translate(-1129.358 -95.834)" fill="#757575"/><path d="M1217.62,113.887q-3.082,0-6.169,0c-.572,0-.614.113-.38.648a4.147,4.147,0,0,0,2.49,2.326,6.094,6.094,0,0,0,3.571.227,4.815,4.815,0,0,0,2.489-1.359.428.428,0,0,1,.632-.062c.968.577,1.959,1.117,2.935,1.68.31.179.329.374.1.666a8.229,8.229,0,0,1-3.563,2.675,10.759,10.759,0,0,1-5.353.648,10.255,10.255,0,0,1-3.565-1.05,8.518,8.518,0,0,1-2.953-2.489,9.587,9.587,0,0,1-1.74-7.458,8.793,8.793,0,0,1,4.4-6.555,9.627,9.627,0,0,1,6.783-1.082,8.269,8.269,0,0,1,5.567,3.728,9.949,9.949,0,0,1,1.5,7.074c-.046.331-.218.388-.5.386C1221.785,113.883,1219.7,113.887,1217.62,113.887Zm-2.315-3.618h.7c1.119,0,2.237,0,3.356,0,.395,0,.476-.1.375-.474a4.019,4.019,0,0,0-.276-.683,4.064,4.064,0,0,0-2.535-2.209,5.165,5.165,0,0,0-3.724.248,4.255,4.255,0,0,0-2.255,2.5c-.2.508-.089.625.455.625Q1213.355,110.271,1215.3,110.268Z" transform="translate(-1078.136 -95.836)" fill="#757575"/><path d="M1161.07,111.949a9.463,9.463,0,1,1,9.444,9.477A9.346,9.346,0,0,1,1161.07,111.949Zm4.608.005a4.732,4.732,0,0,0,4.843,4.948,4.924,4.924,0,1,0-4.843-4.948Z" transform="translate(-1112.723 -95.829)" fill="#757575"/><path d="M1222.284,104.775c.375-.352.673-.676,1.014-.945a6.549,6.549,0,0,1,4.385-1.3,6.76,6.76,0,0,1,2.439.443,6.233,6.233,0,0,1,2.742,2.1,7.474,7.474,0,0,1,1.427,4.3c.076,3.707.032,7.417.044,11.125,0,.287-.125.411-.389.412q-1.933.008-3.866.005c-.315,0-.379-.191-.377-.466.005-1.379,0-2.758,0-4.137,0-1.653.012-3.3-.007-4.958a16.832,16.832,0,0,0-.147-1.862,3.085,3.085,0,0,0-2.921-2.648,4.194,4.194,0,0,0-2.761.589,3.618,3.618,0,0,0-1.439,2.1,8.925,8.925,0,0,0-.235,2.436q0,4.177,0,8.353c0,.6,0,.6-.577.6-1.184,0-2.369-.009-3.553.005-.349,0-.481-.108-.481-.471q.013-8.452.007-16.9c0-.522.068-.581.586-.581q1.737,0,3.473,0c.465,0,.531.065.543.543.007.274-.005.547.008.82A3.129,3.129,0,0,0,1222.284,104.775Z" transform="translate(-1069.201 -95.823)" fill="#757575"/><path d="M1269.67,111.3q0,5.934,0,11.869c0,.593-.044.639-.646.639q-1.718,0-3.436,0c-.524,0-.579-.065-.582-.586,0-.285.007-.574-.013-.859a1.02,1.02,0,0,0-.127-.3.984.984,0,0,0-.283.138,7.324,7.324,0,0,1-6.553,2,8.324,8.324,0,0,1-5.5-3.223,9.5,9.5,0,0,1-1.421-2.574,9.974,9.974,0,0,1-.506-5.107,9.2,9.2,0,0,1,3.688-6.272,8.423,8.423,0,0,1,6.692-1.467,6.463,6.463,0,0,1,3.56,1.883.248.248,0,1,0,.452-.189c.023-.271.009-.545.009-.818V99.328c0-.513.067-.582.589-.584q1.758-.008,3.514,0c.489,0,.561.08.561.574Q1269.671,105.31,1269.67,111.3Zm-4.693,3.583.094-.012a16.43,16.43,0,0,0-.4-1.889,4.534,4.534,0,0,0-3.928-3.14,4.94,4.94,0,0,0-2.986.5,4.578,4.578,0,0,0-2.584,3.689,5.345,5.345,0,0,0,.552,3.36,4.729,4.729,0,0,0,2.342,2.122,5.334,5.334,0,0,0,2.873.3,4.443,4.443,0,0,0,2.772-1.439A4.85,4.85,0,0,0,1264.978,114.886Z" transform="translate(-1043.863 -98.74)" fill="#757575"/><path d="M1251.051,113.873q-3.085,0-6.169,0c-.572,0-.614.113-.38.648a4.151,4.151,0,0,0,2.49,2.326,6.122,6.122,0,0,0,3.57.227,4.819,4.819,0,0,0,2.489-1.359.428.428,0,0,1,.632-.062c.968.577,1.958,1.117,2.935,1.68.31.179.33.374.1.666a8.241,8.241,0,0,1-3.565,2.675,10.773,10.773,0,0,1-5.351.648,10.281,10.281,0,0,1-3.565-1.05,8.533,8.533,0,0,1-2.953-2.489,9.6,9.6,0,0,1-1.742-7.458,8.8,8.8,0,0,1,4.4-6.557,9.626,9.626,0,0,1,6.783-1.082,8.277,8.277,0,0,1,5.567,3.73,9.943,9.943,0,0,1,1.5,7.074c-.046.331-.218.388-.5.386C1255.216,113.87,1253.135,113.873,1251.051,113.873Zm-2.315-3.618h.7c1.119,0,2.238,0,3.354,0,.395,0,.476-.1.375-.474a3.911,3.911,0,0,0-.274-.683,4.055,4.055,0,0,0-2.535-2.209,5.165,5.165,0,0,0-3.724.248,4.247,4.247,0,0,0-2.257,2.5c-.2.508-.088.623.457.625Q1246.786,110.258,1248.736,110.255Z" transform="translate(-1052.389 -95.847)" fill="#757575"/><path d="M1160.427,102.536a8.075,8.075,0,0,1,3.439.719,8.371,8.371,0,0,1,3.337,2.487c.274.343.5.722.77,1.071.142.182.1.313-.062.421-.425.273-.853.54-1.287.8-.655.393-1.32.768-1.97,1.17a.445.445,0,0,1-.7-.136,4.483,4.483,0,0,0-5.107-1.834,4.292,4.292,0,0,0-3.3,3.185,5.245,5.245,0,0,0,.1,3.4,4.338,4.338,0,0,0,2.262,2.507,5.152,5.152,0,0,0,3.763.274,3.963,3.963,0,0,0,2.186-1.547c.375-.533.382-.559.952-.244,1.03.572,2.041,1.181,3.068,1.758.306.173.271.352.112.6a8.921,8.921,0,0,1-3.562,3.222,9.35,9.35,0,0,1-4.939,1.005,9.124,9.124,0,0,1-8.513-7.054,9.674,9.674,0,0,1-.246-3.02,9,9,0,0,1,4.114-7.267A9.258,9.258,0,0,1,1160.427,102.536Z" transform="translate(-1120.706 -95.821)" fill="#757575"/><path d="M1138.433,105.594c.5-.582.929-1.151,1.432-1.643a4.4,4.4,0,0,1,2.115-1.1c.478-.113.968-.177,1.457-.251.259-.039.39.094.39.356q0,2.228.005,4.452c0,.235-.122.322-.342.326a9.2,9.2,0,0,0-1.013.023,4.157,4.157,0,0,0-3.673,2.48,5.208,5.208,0,0,0-.412,1.924c-.046,2.692-.023,5.388-.025,8.081,0,.628,0,.63-.625.63-1.172,0-2.342-.011-3.514.005-.359.005-.473-.127-.471-.48q.01-8.433.005-16.868c0-.556.057-.607.6-.607q1.74,0,3.475,0c.449,0,.522.067.529.519.011.559,0,1.119.009,1.678A3.726,3.726,0,0,0,1138.433,105.594Z" transform="translate(-1133.758 -95.773)" fill="#757575"/></g></g><g transform="translate(1183.472 104.388)"><path d="M1185.035,88.89c.522-.441.97-.853,1.457-1.216a5.884,5.884,0,0,1,1.667-.807,8.992,8.992,0,0,1,3.471-.315,7.144,7.144,0,0,1,2.14.535,8.4,8.4,0,0,1,3.754,2.923,8.97,8.97,0,0,1,1.455,2.949,9.741,9.741,0,0,1,.429,3.462,10.765,10.765,0,0,1-.736,3.291,9.341,9.341,0,0,1-2.045,3.094,8.461,8.461,0,0,1-3.347,2.06,8.372,8.372,0,0,1-4.728.159,6.629,6.629,0,0,1-3.245-1.914c-.06-.064-.129-.119-.205-.186-.2.165-.14.37-.142.554q-.005,3.826,0,7.651c0,.793,0,.793-.806.793q-1.62,0-3.239,0c-.451,0-.524-.074-.537-.513,0-.09,0-.182,0-.273V87.793c0-.839,0-.839.836-.839q1.6,0,3.2,0c.467,0,.533.067.543.545.005.3,0,.6.005.9A4.463,4.463,0,0,0,1185.035,88.89Zm4.7,11.982a4.547,4.547,0,0,0,2.6-.593,4.273,4.273,0,0,0,2.273-2.907,5.534,5.534,0,0,0-.271-3.739,4.34,4.34,0,0,0-1.23-1.63,5.189,5.189,0,0,0-2-.977,4.942,4.942,0,0,0-4.248.818,4.634,4.634,0,0,0-1.855,3.379,5.125,5.125,0,0,0,1.177,4.064,4.226,4.226,0,0,0,1.646,1.207A4,4,0,0,0,1189.738,100.873Z" transform="translate(-1096.154 -79.208)" fill="#757575"/><path d="M1144.345,97.807h-5.973c-.117,0-.234,0-.351,0-.31.019-.393.14-.276.435a4.166,4.166,0,0,0,1.992,2.257,5.951,5.951,0,0,0,3.174.623A5.354,5.354,0,0,0,1146,99.968a1.1,1.1,0,0,0,.119-.1c.55-.543.542-.529,1.2-.124.637.395,1.3.758,1.944,1.135a7.186,7.186,0,0,1,.669.393c.246.182.3.34.092.616a8.528,8.528,0,0,1-3.163,2.526,10.538,10.538,0,0,1-3.263.844,10.389,10.389,0,0,1-3.567-.219,8.825,8.825,0,0,1-5.227-3.154,9.274,9.274,0,0,1-1.421-2.569,10.389,10.389,0,0,1-.485-4.88,13.125,13.125,0,0,1,.479-1.878,7.226,7.226,0,0,1,.913-1.924,8.943,8.943,0,0,1,1.974-2.186,8.57,8.57,0,0,1,2.8-1.478,9.974,9.974,0,0,1,4.939-.294,8.338,8.338,0,0,1,5.121,3.087,9.455,9.455,0,0,1,1.68,3.307,12.167,12.167,0,0,1,.386,2.692,11.468,11.468,0,0,1-.152,1.784c-.019.189-.141.262-.326.26-.26,0-.52,0-.781,0Zm-2.289-3.59q1.991,0,3.981,0c.457,0,.57-.113.4-.536a6.345,6.345,0,0,0-.724-1.365,4.071,4.071,0,0,0-2.551-1.575,5.485,5.485,0,0,0-2.733.166,3.911,3.911,0,0,0-2.082,1.5,3.693,3.693,0,0,0-.687,1.423c-.055.262.026.354.3.382.1.009.209,0,.313,0Z" transform="translate(-1132.797 -79.226)" fill="#757575"/><path d="M1222.534,97.8h-6.167c-.52.007-.584.136-.37.607a4.142,4.142,0,0,0,1.715,1.96,5.422,5.422,0,0,0,1.136.487,6.108,6.108,0,0,0,1.921.283,5.9,5.9,0,0,0,2.556-.616,5.228,5.228,0,0,0,1.057-.777c.382-.342.373-.379.813-.14.648.352,1.281.731,1.92,1.1.269.154.535.319.809.46.46.237.494.4.2.795a8.253,8.253,0,0,1-3.08,2.445,10.56,10.56,0,0,1-3.3.851,10.442,10.442,0,0,1-3.53-.221,8.823,8.823,0,0,1-5.229-3.147,9.276,9.276,0,0,1-1.425-2.569,10.4,10.4,0,0,1-.485-4.918,11.971,11.971,0,0,1,.472-1.841,7.468,7.468,0,0,1,1.285-2.469,8.845,8.845,0,0,1,2.6-2.314,9.882,9.882,0,0,1,6.661-1.122,8.081,8.081,0,0,1,3.671,1.606A8.517,8.517,0,0,1,1227.9,90.6a10.1,10.1,0,0,1,1.055,2.372,11.178,11.178,0,0,1,.4,2.691,13,13,0,0,1-.143,1.862.276.276,0,0,1-.319.269c-.1,0-.207,0-.312,0Zm-2.307-3.59c1.34,0,2.68,0,4.02,0,.426,0,.533-.1.379-.487a6.346,6.346,0,0,0-.729-1.406,4.044,4.044,0,0,0-2.547-1.581,5.463,5.463,0,0,0-2.733.163,3.91,3.91,0,0,0-2.085,1.5,3.692,3.692,0,0,0-.69,1.421c-.055.269.023.361.287.389a3.088,3.088,0,0,0,.313.005Z" transform="translate(-1072.585 -79.216)" fill="#757575"/><path d="M1173.847,97.792h-6.012c-.7,0-.727.064-.441.7a4.018,4.018,0,0,0,1.682,1.885,6.311,6.311,0,0,0,1.179.487,5.487,5.487,0,0,0,2.195.25,5.085,5.085,0,0,0,3.36-1.437c.3-.3.315-.3.685-.1.678.377,1.345.772,2.02,1.158.269.154.542.3.816.448.384.2.423.391.171.728a8.194,8.194,0,0,1-3.107,2.475,7.981,7.981,0,0,1-2.448.735,10.86,10.86,0,0,1-2.914.126,13.035,13.035,0,0,1-2.484-.485,9.8,9.8,0,0,1-2.524-1.271,8.389,8.389,0,0,1-2.278-2.427,10.429,10.429,0,0,1-.841-1.744,10.127,10.127,0,0,1-.5-4.84,13.1,13.1,0,0,1,.474-1.919,7.364,7.364,0,0,1,.91-1.924,8.775,8.775,0,0,1,4.807-3.689,10.446,10.446,0,0,1,3.581-.427,7.545,7.545,0,0,1,2.372.411,11.422,11.422,0,0,1,1.995.947,7.687,7.687,0,0,1,2.314,2.165,9.576,9.576,0,0,1,1.448,2.993,10.4,10.4,0,0,1,.285,4.248c-.067.489-.079.508-.582.508Zm-2.266-3.59h3.082c.338,0,.676.009,1.014-.005.3-.012.388-.1.317-.391a4.993,4.993,0,0,0-.274-.724,3.921,3.921,0,0,0-1.369-1.659,4.639,4.639,0,0,0-1.71-.706,5.205,5.205,0,0,0-2.73.189,3.831,3.831,0,0,0-2.016,1.46,3.773,3.773,0,0,0-.7,1.414c-.069.31.011.4.331.42.1.005.207,0,.312,0Z" transform="translate(-1110.058 -79.211)" fill="#757575"/><path d="M1149.633,88.751c.442-.4.8-.756,1.193-1.062a5.875,5.875,0,0,1,1.693-.853,8.167,8.167,0,0,1,3.666-.22,5.554,5.554,0,0,1,2.008.7,6.087,6.087,0,0,1,2.2,2.048,7.288,7.288,0,0,1,.965,2.365,13.173,13.173,0,0,1,.269,2.984c-.014,3.124-.006,6.247-.006,9.369,0,.119-.007.235,0,.352.012.234-.113.331-.325.347-.09.007-.182.011-.273.012-1.157,0-2.315,0-3.475,0-.487,0-.536-.051-.536-.538,0-3.071.01-6.142-.009-9.214a8.3,8.3,0,0,0-.2-1.935,2.894,2.894,0,0,0-1.69-2.006,4.229,4.229,0,0,0-2.448-.253,3.219,3.219,0,0,0-2.586,1.889,4.933,4.933,0,0,0-.5,2.1c-.015,2.707-.013,5.415-.018,8.122,0,.481.005.963,0,1.444-.005.34-.048.389-.384.391q-1.914.005-3.827,0c-.31,0-.352-.057-.366-.37,0-.092,0-.182,0-.274v-16.4c0-.788,0-.788.77-.788,1.106,0,2.211,0,3.317,0,.4,0,.475.073.49.476.011.285,0,.572.009.859C1149.571,88.429,1149.6,88.564,1149.633,88.751Z" transform="translate(-1123.416 -79.212)" fill="#757575"/><path d="M1157.852,97.918q0-2.029,0-4.059c0-.481-.032-.512-.508-.513-.7,0-1.405,0-2.108,0-.389,0-.446-.044-.448-.414q-.011-1.776,0-3.553c0-.421.083-.485.517-.487.7,0,1.405,0,2.108,0,.37,0,.436-.065.439-.434.005-.82,0-1.639,0-2.459,0-.129,0-.26.014-.389a.421.421,0,0,1,.347-.407c.946-.278,1.885-.575,2.827-.866.334-.1.669-.205,1-.3.241-.071.344-.009.379.239a2.874,2.874,0,0,1,.014.389v3.553c0,.63.046.676.694.678.911,0,1.821,0,2.733,0,.492,0,.621.126.625.627q.008,1.657,0,3.317c0,.425-.085.506-.506.508-.95.007-1.9,0-2.85,0-.129,0-.26.005-.39.016a.286.286,0,0,0-.3.327c0,.051,0,.1,0,.156,0,2.239-.005,4.477.009,6.716a3.66,3.66,0,0,0,.177.988,1.28,1.28,0,0,0,1.181.929c.683.067,1.375.06,2.064.071.508.007.618.092.621.612.008,1.041,0,2.082,0,3.123,0,.345-.083.43-.435.46a16.238,16.238,0,0,1-4.124-.064,4.388,4.388,0,0,1-3.374-2.308,5.922,5.922,0,0,1-.419-1.209,18.6,18.6,0,0,1-.281-4.542C1157.848,98.387,1157.852,98.153,1157.852,97.918Z" transform="translate(-1115.866 -81.144)" fill="#757575"/><path d="M1178.6,89.586a5.151,5.151,0,0,1,1.3-1.673,4.934,4.934,0,0,1,2.124-1.087,11.11,11.11,0,0,1,1.379-.235c.372-.037.432.034.434.418q.011,2.148,0,4.3c0,.315-.055.361-.363.374-.195.007-.391-.009-.586,0a4.591,4.591,0,0,0-3.349,1.407,4.106,4.106,0,0,0-1.1,2.765c-.039,1.977-.018,3.956-.02,5.934,0,.846,0,1.692,0,2.538,0,.366-.046.412-.4.414q-1.893.005-3.787,0c-.338,0-.379-.051-.391-.388,0-.078,0-.156,0-.235V87.676c0-.772,0-.772.781-.772,1.106,0,2.213,0,3.319,0,.381,0,.464.067.475.448.018.586,0,1.172.012,1.756a3.967,3.967,0,0,0,.067.478Z" transform="translate(-1101.187 -79.158)" fill="#757575"/><path d="M1196.567,89.65c.283-.405.5-.754.756-1.073a4.946,4.946,0,0,1,3-1.8,10.053,10.053,0,0,1,1.073-.186c.45-.035.5.021.5.469.007.859,0,1.717,0,2.577,0,.545.005,1.092,0,1.639,0,.356-.05.4-.413.405-.182,0-.365-.011-.545,0A4.606,4.606,0,0,0,1197.677,93,4.124,4.124,0,0,0,1196.5,95.9c-.028,2.576-.014,5.153-.018,7.73,0,.26,0,.52,0,.781,0,.228-.1.329-.331.329q-1.954-.005-3.905,0c-.25,0-.356-.117-.345-.359.005-.09,0-.182,0-.273v-16.4c0-.8,0-.8.789-.8,1.092,0,2.186,0,3.28,0,.427,0,.5.062.508.494.012.574,0,1.145.009,1.719A4.2,4.2,0,0,0,1196.567,89.65Z" transform="translate(-1087.28 -79.159)" fill="#757575"/><path d="M1202.684,95.709v8.352c0,.526-.011.535-.556.536h-.586c-.988,0-1.978,0-2.965,0-.441,0-.474-.03-.474-.46q0-8.391,0-16.781c0-.545.053-.589.612-.589h3.24c.719,0,.728.007.728.751v8.194Z" transform="translate(-1082.501 -79.018)" fill="#757575"/><path d="M1200.572,87.976a2.8,2.8,0,0,1-2.778-2.813,2.833,2.833,0,0,1,5.665.067A2.783,2.783,0,0,1,1200.572,87.976Z" transform="translate(-1082.74 -82.388)" fill="#757575"/><path d="M1209.965,105.291a11.227,11.227,0,0,1-4.057-.743,13.284,13.284,0,0,1-3.723-2c-.3-.232-.432-.414-.127-.765.637-.738,1.216-1.521,1.825-2.282.163-.2.331-.228.59-.076a23.743,23.743,0,0,0,2.487,1.365,6.61,6.61,0,0,0,3.848.588,2.536,2.536,0,0,0,1.613-.731,1.138,1.138,0,0,0-.085-1.648,4.632,4.632,0,0,0-1.368-.8c-1.2-.428-2.446-.766-3.661-1.168a7.1,7.1,0,0,1-3.882-2.56,4.481,4.481,0,0,1-.54-4.109,5.077,5.077,0,0,1,2.978-3.052,9.721,9.721,0,0,1,5.339-.712,10.562,10.562,0,0,1,5.487,2.473c.259.22.276.418.066.653-.668.751-1.34,1.5-2,2.252a.4.4,0,0,1-.63.051,8.36,8.36,0,0,0-2.62-1.43,4.569,4.569,0,0,0-3.672.168,1.733,1.733,0,0,0-.687.8c-.171.379.107.828.664,1.089a17.324,17.324,0,0,0,2.1.83,21.281,21.281,0,0,1,4.916,1.99,4.407,4.407,0,0,1,2.321,3.555,8.227,8.227,0,0,1-.014,1.629,4.674,4.674,0,0,1-2.208,3.236A8.871,8.871,0,0,1,1209.965,105.291Z" transform="translate(-1079.589 -79.219)" fill="#757575"/></g><g transform="translate(1184.619 77.33)"><path d="M1133.445,83.138a10.275,10.275,0,0,1,.673-3.74A9.222,9.222,0,0,1,1136,76.374a8.646,8.646,0,0,1,2.891-2.023,9.136,9.136,0,0,1,3.687-.733,8.145,8.145,0,0,1,2.765.446,7.563,7.563,0,0,1,2.406,1.467V73.976h4.546V92.3h-4.546V90.744a7.531,7.531,0,0,1-2.406,1.467,8.1,8.1,0,0,1-2.765.448,9.1,9.1,0,0,1-3.687-.735A8.642,8.642,0,0,1,1136,89.9a9.212,9.212,0,0,1-1.878-3.025A10.268,10.268,0,0,1,1133.445,83.138Zm9.718,5.245a5.8,5.8,0,0,0,1.128-.117,5.224,5.224,0,0,0,1.191-.395,5.6,5.6,0,0,0,1.172-.742,6.7,6.7,0,0,0,1.09-1.145V80.293a6.44,6.44,0,0,0-1.09-1.136,6.125,6.125,0,0,0-1.174-.743,4.967,4.967,0,0,0-1.189-.4,5.814,5.814,0,0,0-1.128-.117,4.992,4.992,0,0,0-1.977.393,4.857,4.857,0,0,0-1.6,1.1,5.149,5.149,0,0,0-1.064,1.666,5.819,5.819,0,0,0,0,4.169,5.123,5.123,0,0,0,1.064,1.664,4.806,4.806,0,0,0,1.6,1.1,4.993,4.993,0,0,0,1.977.395Zm20.491-10.242a3.843,3.843,0,0,0-4.025,3.746V92.3h-4.546V82.01a8.69,8.69,0,0,1,8.506-8.392h.127a8.69,8.69,0,0,1,8.505,8.392V92.3h-4.546V81.886a3.843,3.843,0,0,0-4.025-3.746m10.724,5a10.274,10.274,0,0,1,.671-3.74,9.22,9.22,0,0,1,1.878-3.023,8.651,8.651,0,0,1,2.891-2.023,9.138,9.138,0,0,1,3.687-.733,8.222,8.222,0,0,1,2.774.446,7.5,7.5,0,0,1,2.4,1.45V68.481h4.546V92.3h-4.546v-1.54a7.2,7.2,0,0,1-2.4,1.459,8.358,8.358,0,0,1-2.774.439,9.109,9.109,0,0,1-3.687-.735,8.647,8.647,0,0,1-2.891-2.022,9.209,9.209,0,0,1-1.878-3.025A10.267,10.267,0,0,1,1174.375,83.138Zm9.717,5.245a5.8,5.8,0,0,0,1.127-.117,5.222,5.222,0,0,0,1.191-.395,5.6,5.6,0,0,0,1.172-.742,6.711,6.711,0,0,0,1.092-1.145V80.293a6.452,6.452,0,0,0-1.092-1.136,6.166,6.166,0,0,0-1.172-.743,5.005,5.005,0,0,0-1.191-.4,5.8,5.8,0,0,0-1.127-.117,4.994,4.994,0,0,0-1.978.393,4.857,4.857,0,0,0-1.6,1.1,5.148,5.148,0,0,0-1.064,1.666,5.845,5.845,0,0,0,0,4.169,5.122,5.122,0,0,0,1.064,1.664,4.824,4.824,0,0,0,1.6,1.1,5,5,0,0,0,1.978.395Zm30.415,0A4.852,4.852,0,0,0,1216.43,88a4.731,4.731,0,0,0,1.575-1.082,5.1,5.1,0,0,0,1.057-1.657,5.654,5.654,0,0,0,.384-2.121,5.465,5.465,0,0,0-.395-2.1,5.16,5.16,0,0,0-1.073-1.655,4.986,4.986,0,0,0-1.575-1.092,4.666,4.666,0,0,0-1.9-.393,4.765,4.765,0,0,0-1.922.393,4.847,4.847,0,0,0-1.575,1.092,5.259,5.259,0,0,0-1.066,1.655,5.49,5.49,0,0,0-.393,2.1,5.632,5.632,0,0,0,.384,2.121,5.105,5.105,0,0,0,1.057,1.657A4.733,4.733,0,0,0,1212.564,88,4.913,4.913,0,0,0,1214.506,88.383Zm0,4.277a9.825,9.825,0,0,1-3.74-.715,9.51,9.51,0,0,1-3.068-2,9.4,9.4,0,0,1-2.838-6.81,9.162,9.162,0,0,1,.761-3.723,9.645,9.645,0,0,1,8.884-5.8,9.5,9.5,0,0,1,3.74.742,9.593,9.593,0,0,1,5.128,5.056,9.162,9.162,0,0,1,.761,3.723,9.395,9.395,0,0,1-2.838,6.81,9.522,9.522,0,0,1-3.061,2A9.747,9.747,0,0,1,1214.506,92.66Zm13.938-20.12a2.557,2.557,0,0,1-1.045-.216,2.787,2.787,0,0,1-.862-.586,2.821,2.821,0,0,1-.588-.864,2.583,2.583,0,0,1-.216-1.044,2.646,2.646,0,0,1,.216-1.053,2.748,2.748,0,0,1,.588-.871,2.793,2.793,0,0,1,.862-.588,2.587,2.587,0,0,1,1.045-.216,2.639,2.639,0,0,1,1.053.216,2.777,2.777,0,0,1,.873.588,2.747,2.747,0,0,1,.586.871,2.615,2.615,0,0,1,.216,1.053,2.549,2.549,0,0,1-.216,1.044,2.815,2.815,0,0,1-.586.864,2.773,2.773,0,0,1-.873.586,2.6,2.6,0,0,1-1.053.216Zm-2.273,1.436h4.546V92.3h-4.546Zm6.636,9.162a10.272,10.272,0,0,1,.671-3.74,9.256,9.256,0,0,1,1.88-3.023,8.655,8.655,0,0,1,2.891-2.023,9.123,9.123,0,0,1,3.686-.733,8.213,8.213,0,0,1,2.774.446,7.483,7.483,0,0,1,2.4,1.45V68.481h4.546V92.3h-4.546v-1.54a7.18,7.18,0,0,1-2.4,1.459,8.357,8.357,0,0,1-2.774.439,9.094,9.094,0,0,1-3.686-.735,8.651,8.651,0,0,1-2.891-2.022,9.245,9.245,0,0,1-1.88-3.025A10.265,10.265,0,0,1,1232.808,83.138Zm9.719,5.245a5.824,5.824,0,0,0,1.127-.117,5.234,5.234,0,0,0,1.19-.395,5.516,5.516,0,0,0,1.172-.742,6.654,6.654,0,0,0,1.092-1.145V80.293a6.4,6.4,0,0,0-1.092-1.136,6.069,6.069,0,0,0-1.172-.743,5.016,5.016,0,0,0-1.19-.4,5.825,5.825,0,0,0-1.127-.117,4.986,4.986,0,0,0-1.978.393,4.839,4.839,0,0,0-1.6,1.1,5.15,5.15,0,0,0-1.066,1.666,5.849,5.849,0,0,0,0,4.169,5.124,5.124,0,0,0,1.066,1.664,4.806,4.806,0,0,0,1.6,1.1,4.988,4.988,0,0,0,1.978.395Zm-38.1-10.3c-3.046,0-4.39,1.572-4.39,3.8V92.3h-4.546V82.01c.027-4.291,2.505-8.509,8.936-8.509" transform="translate(-1133.445 -67.102)" fill="#757575"/></g><g transform="translate(1090.237 78.523)"><path d="M1100.555,67.776s20.583.588,34.7,8.821c0,0,12.351,49.988-34.7,70.571Z" transform="translate(-1064.394 -67.776)" fill="#6fb749"/><path d="M1116.288,67.776s-20.583.588-34.7,8.821c0,0-12.35,49.988,34.7,70.571Z" transform="translate(-1080.127 -67.776)" fill="#78c257"/></g><g transform="translate(1108.668 96.485)"><path d="M1091.253,110.751l2.353-21.759,8.821-4.705,1.176-4.116,8.822-.589,1.175-1.175,9.35,6.238,16.181,15.333,2.176,2.174s-5.358,21.538-26.529,33.3Z" transform="translate(-1089.989 -77.55)" fill="url(#c)"/><path d="M1125.445,86.195a3.349,3.349,0,0,0-2.491-1.1h-7.259V81.552a3.507,3.507,0,0,0-1.055-2.574,3.413,3.413,0,0,0-2.491-1.055h-7.259a3.343,3.343,0,0,0-2.491,1.1,3.54,3.54,0,0,0-1.055,2.531V85.1h-7.259a3.343,3.343,0,0,0-2.491,1.1,3.545,3.545,0,0,0-1.055,2.533v19.836a3.6,3.6,0,0,0,3.546,3.546h28.869a3.6,3.6,0,0,0,3.546-3.546V88.728A3.551,3.551,0,0,0,1125.445,86.195Zm-20.555-4.643h7.259V85.1h-7.259Zm3.673,19.87a3.823,3.823,0,1,1,3.824-3.824A3.822,3.822,0,0,1,1108.563,101.422Z" transform="translate(-1090.539 -77.923)" fill="#fff"/></g></g></g></svg>