<?xml version="1.0" encoding="utf-8"?>
<!-- Generator: Adobe Illustrator 24.3.0, SVG Export Plug-In . SVG Version: 6.00 Build 0)  -->
<svg version="1.1" id="Layer_1" xmlns="http://www.w3.org/2000/svg" xmlns:xlink="http://www.w3.org/1999/xlink" x="0px" y="0px"
	 viewBox="0 0 378.2 76.8" style="enable-background:new 0 0 378.2 76.8;" xml:space="preserve">
<style type="text/css">
	.st0{fill:#FFFFFF;}
</style>
<g>
	<path class="st0" d="M216.4,49.7h1.5v7.2h-1.5c-8.3,0-15-6.7-15-15V10.5h7.2v9.4h9.3v7.2h-9.3v14.8
		C208.6,46.2,212.1,49.7,216.4,49.7"/>
	<path class="st0" d="M303.6,50.4c-6.6,0-12-5.4-12-12c0-6.6,5.4-12,12-12c6.6,0,12,5.4,12,12C315.6,45,310.2,50.4,303.6,50.4
		 M303.6,19.2c-10.6,0-19.2,8.6-19.2,19.2c0,10.6,8.6,19.2,19.2,19.2c10.6,0,19.2-8.6,19.2-19.2C322.8,27.8,314.2,19.2,303.6,19.2"
		/>
	<path class="st0" d="M359,50.4c-6.6,0-12-5.4-12-12c0-6.6,5.4-12,12-12c6.6,0,12,5.4,12,12C371,45,365.5,50.4,359,50.4 M359,19.2
		c-10.6,0-19.2,8.6-19.2,19.2c0,10.6,8.6,19.2,19.2,19.2c4.7,0,9-1.7,12.3-4.5v3.8h6.9V39c0-0.2,0-0.4,0-0.6
		C378.2,27.8,369.5,19.2,359,19.2"/>
	<path class="st0" d="M278.6,19.9h3.4v7.2h-3.4c-4.3,0-7.8,3.5-7.8,7.8v4.7v8.9v8.4h-7.2v-22C263.6,26.6,270.3,19.9,278.6,19.9"/>
	<rect x="327.6" y="10.5" class="st0" width="7.2" height="47.1"/>
	<path class="st0" d="M153.4,34.1v22.8h-7.2V34.1c0-4.3-3.5-7.8-7.8-7.8c-4.3,0-7.8,3.5-7.8,7.8v22.8h-7.2V34.1
		c0-4.3-3.5-7.8-7.8-7.8c-4.3,0-7.8,3.5-7.8,7.8v22.8h-7.2V34.1c0-8.3,6.7-15,15-15c4.6,0,8.7,2,11.4,5.3c2.8-3.2,6.9-5.3,11.4-5.3
		C146.6,19.1,153.4,25.8,153.4,34.1"/>
	<path class="st0" d="M177.5,50.4c-6.6,0-12-5.4-12-12c0-6.6,5.4-12,12-12c6.6,0,12,5.4,12,12C189.5,45,184,50.4,177.5,50.4
		 M177.5,19.2c-10.7,0-19.3,8.6-19.3,19.2c0,10.6,8.6,19.2,19.2,19.2s19.2-8.6,19.2-19.2C196.7,27.8,188,19.2,177.5,19.2"/>
	<path class="st0" d="M239.5,50.4c-6.6,0-12-5.4-12-12c0-6.6,5.4-12,12-12c6.6,0,12,5.4,12,12C251.5,45,246.1,50.4,239.5,50.4
		 M239.5,19.2c-10.6,0-19.2,8.6-19.2,19.2c0,10.6,8.6,19.2,19.2,19.2c10.6,0,19.2-8.6,19.2-19.2C258.7,27.8,250.1,19.2,239.5,19.2"
		/>
	<path class="st0" d="M62.6,56.6c-3.5-11.3-7.9-18.2-13-18.2c-4.1,0-8,4.6-11.1,12.6c-3.2-8-7-12.6-11.2-12.6c-5,0-9.5,6.9-13,18.2
		h-2.6L27,9.6l11.4,35.2L49.8,9.6l15.3,47.1H62.6z M38.4,0C17.2,0,0,17.2,0,38.4c0,21.2,17.2,38.4,38.4,38.4
		c21.2,0,38.4-17.2,38.4-38.4C76.8,17.3,59.9,0,38.4,0"/>
</g>
</svg>
