<svg xmlns="http://www.w3.org/2000/svg" xmlns:xlink="http://www.w3.org/1999/xlink" width="507" height="66" viewBox="0 0 507 66">
  <defs>
    <clipPath id="clip-Moto_trade-in_TM">
      <rect width="507" height="66"/>
    </clipPath>
  </defs>
  <g id="Moto_trade-in_TM" data-name="Moto trade-in TM" clip-path="url(#clip-Moto_trade-in_TM)">
    <g id="Group_4183" data-name="Group 4183" transform="translate(0 5.113)">
      <g id="Group_4126" data-name="Group 4126" transform="translate(0 0.001)">
        <g id="Moto-trade-in_000000" data-name="Moto-trade-in – #000000" transform="translate(0 0)">
          <path id="Exclusion_2" data-name="Exclusion 2" d="M10.834,55.548a14.222,14.222,0,0,0,6.9-1.653V48.933a11.891,11.891,0,0,1-5.566,1.353c-3.859,0-6.456-1.729-6.456-6.464V21.12h12.17V16.01H5.714V4.285H0V44.574C0,52.466,4.675,55.548,10.834,55.548ZM25.9,54.871h5.716V39.387c0-11.726,6.827-17.814,15.213-17.814h.445V15.334c-7.272-.3-12.839,4.359-15.658,10.824V16.01H25.9Zm40.734.827a16.741,16.741,0,0,0,13.877-6.69v5.863H86V31.119c0-4.961-1.336-8.719-3.933-11.35-2.82-2.856-6.976-4.285-12.393-4.285a31.336,31.336,0,0,0-13.949,3.232l1.707,4.735A26.447,26.447,0,0,1,69.084,20.6c7.2,0,11.428,3.608,11.428,10.6v1.353a40.254,40.254,0,0,0-11.8-1.653c-9.721,0-16.4,4.359-16.4,12.553v.15C52.311,51.564,59.509,55.7,66.633,55.7Zm1.113-4.585c-5.194,0-9.647-2.856-9.647-7.742v-.152c0-4.886,4.006-8.043,11.206-8.043a39.547,39.547,0,0,1,11.28,1.653v3.758c0,6.166-5.789,10.526-12.838,10.526ZM112.2,55.7c7.05,0,11.576-3.984,14.693-8.644v7.817H132.6V0h-5.714V23.452c-2.968-4.359-7.569-8.268-14.693-8.268-9.2,0-18.329,7.517-18.329,20.22v.15C93.868,48.332,103,55.7,112.2,55.7Zm1.039-5.187c-7.272,0-13.506-5.863-13.506-15.033v-.15c0-9.4,6.085-14.96,13.506-14.96,7.124,0,13.877,6.013,13.877,14.96v.15c0,8.945-6.753,15.034-13.879,15.034Zm46.826,5.261c7.272,0,11.947-2.933,15.806-7.291l-3.562-3.232a15.791,15.791,0,0,1-12.1,5.487c-6.827,0-12.69-4.735-13.506-13.154h30.425A15.289,15.289,0,0,0,177.2,35.7c0-11.35-6.531-20.52-17.884-20.52-10.612,0-18.4,9.02-18.4,20.22v.15c0,12.027,8.609,20.22,19.146,20.22ZM146.7,33.3c.742-7.592,5.788-13.229,12.467-13.229,7.644,0,11.651,6.163,12.244,13.229Zm36.882,2.029h20.631V29.239H183.586ZM213.492,7.517h6.531V1.127h-6.531Zm.371,47.354h5.714V16.01h-5.714Zm14.053,0h5.714V32.622c0-7.291,4.9-12.177,11.5-12.177,6.753,0,10.612,4.51,10.612,11.726v22.7h5.714V30.743c0-9.245-5.417-15.56-14.693-15.56-6.6,0-10.612,3.383-13.135,7.592V16.01h-5.715Z" transform="translate(189.369)"/>
          <path id="Path_13211" data-name="Path 13211" d="M670.826,135.848H672.4v7.533h-1.577A15.658,15.658,0,0,1,655.3,127.652V94.7h7.437v9.856h9.6v7.533h-9.6v15.563a8.175,8.175,0,0,0,8.09,8.194" transform="translate(-550.946 -88.621)"/>
          <path id="Path_13212" data-name="Path 13212" d="M54.669,166.526v23.923H47.232V166.526a8.09,8.09,0,1,0-16.18,0v23.923H23.616V166.526a8.091,8.091,0,1,0-16.18,0v23.923H0V166.526a15.682,15.682,0,0,1,10.131-14.758,15.362,15.362,0,0,1,17.164,4.564,15.421,15.421,0,0,1,17.191-4.555,15.742,15.742,0,0,1,10.184,14.749" transform="translate(0 -135.671)"/>
          <path id="Path_13209" data-name="Path 13209" d="M394.421,151.4a20.124,20.124,0,1,0,19.81,20.146v-.016A20.2,20.2,0,0,0,408.45,157.3a19.688,19.688,0,0,0-14.029-5.9m0,32.712a12.582,12.582,0,1,1,12.421-12.581,12.5,12.5,0,0,1-12.421,12.581" transform="translate(-314.862 -136.175)"/>
          <path id="Path_13210" data-name="Path 13210" d="M797.958,151.4a20.116,20.116,0,1,0,19.858,20.114h0A20,20,0,0,0,797.958,151.4m0,32.7a12.582,12.582,0,1,1,12.421-12.581A12.5,12.5,0,0,1,797.958,184.1" transform="translate(-654.19 -136.175)"/>
        </g>
      </g>
      <path id="Icon_metro-trademark" data-name="Icon metro-trademark" d="M18.729,13.413v2.124a.52.52,0,0,1-.179.4.609.609,0,0,1-.424.163H12.507V30.842a.584.584,0,0,1-.584.581H9.377a.608.608,0,0,1-.424-.163.54.54,0,0,1-.179-.418V16.1h-5.6a.608.608,0,0,1-.424-.163.521.521,0,0,1-.179-.4V13.413A.554.554,0,0,1,2.741,13a.6.6,0,0,1,.434-.163H18.126A.591.591,0,0,1,18.55,13,.548.548,0,0,1,18.729,13.413Zm19.57-.054,1.452,17.447a.583.583,0,0,1-.151.436.607.607,0,0,1-.434.182H36.64a.57.57,0,0,1-.4-.154.553.553,0,0,1-.189-.372l-.867-10.675-3.563,7.716a.547.547,0,0,1-.547.345H28.816a.57.57,0,0,1-.547-.345l-3.545-7.752L23.876,30.9a.553.553,0,0,1-.189.372.57.57,0,0,1-.4.154H20.746a.607.607,0,0,1-.434-.182.616.616,0,0,1-.17-.436l1.471-17.447a.553.553,0,0,1,.189-.372.57.57,0,0,1,.4-.154h2.677a.569.569,0,0,1,.547.345l4.148,9.441q.189.436.377.926.057-.127.179-.445t.2-.481l4.167-9.441a.57.57,0,0,1,.547-.345H37.7a.594.594,0,0,1,.415.154.554.554,0,0,1,.189.372Z" transform="translate(466.847 -12.832)"/>
    </g>
  </g>
</svg>
