<svg xmlns="http://www.w3.org/2000/svg" xmlns:xlink="http://www.w3.org/1999/xlink" version="1.1" id="Layer_1" x="0px" y="0px" viewBox="0 0 100 100" style="enable-background:new 0 0 100 100;" xml:space="preserve">
<style type="text/css">
</style>
<g>
	<path d="M100,50.5c0-27.6-22.4-50.1-50-50.2c-27.4,0-50,22.6-50,50c0,27.5,22.5,50,49.9,50C77.4,100.3,100,77.9,100,50.5z"></path>
	<g>
		<path class="st0" d="M71.1,31.2H29c-2.1,0-3.9,1.8-3.9,3.9v24.1c0,2.1,1.8,3.9,3.9,3.9h28.9v6.3l6.3-6.3H71c2.1,0,3.9-1.8,3.9-3.9    V35.1C74.9,33,73.2,31.2,71.1,31.2z"></path>
		<g>
			<path d="M40.2,48.3c-1.1,0-2.3-1.2-2.2-2.4c0.1-1.1,1.1-2.1,2.3-2.1c1.1,0,2.2,1.1,2.2,2.2C42.5,47.2,41.4,48.4,40.2,48.3z"></path>
			<path d="M62.1,46c0,1.2-1,2.4-2.2,2.4c-1.1,0-2.2-1.1-2.2-2.2c0-1.2,1-2.4,2.2-2.3C61.1,43.8,62.1,44.7,62.1,46z"></path>
			<path d="M52.3,46c0,1.2-1.1,2.4-2.3,2.4c-1.1,0-2.2-1.1-2.3-2.2c0-1.2,1.1-2.3,2.3-2.3C51.2,43.8,52.2,44.8,52.3,46z"></path>
		</g>
	</g>
</g>
</svg>