<svg xmlns="http://www.w3.org/2000/svg" xmlns:xlink="http://www.w3.org/1999/xlink" class="sl-svg-ic sl-svg-ic--ml" version="1.1" x="0px" y="0px" width="25px" height="25px" viewBox="0 0 25 25" style="enable-background:new 0 0 25 25;" xml:space="preserve">
<style type="text/css">
.sl-svg-ic--ml__0 { fill:#000000; }
.sl-svg-ic--ml__1 { fill:#000000; }
.sl-svg-ic--ml__2 { fill:#FFFFFF; }
.sl-svg-ic--ml:hover .sl-svg-ic--ml__0 { fill:#FFFFFF; }
.sl-svg-ic--ml:hover .sl-svg-ic--ml__1 { fill:#E6E7E8; }
.sl-svg-ic--ml:hover .sl-svg-ic--ml__2 { fill:#231F20; }
</style>
<g>
<g>
<circle class="sl-svg-ic--ml__0" cx="12.5" cy="12.5" r="11.5"></circle>
<path class="sl-svg-ic--ml__1" d="M12.5,2C18.3,2,23,6.7,23,12.5S18.3,23,12.5,23S2,18.3,2,12.5S6.7,2,12.5,2 M12.5,0C5.6,0,0,5.6,0,12.5 S5.6,25,12.5,25C19.4,25,25,19.4,25,12.5S19.4,0,12.5,0L12.5,0z"></path>
</g>
<path class="sl-svg-ic--ml__2" d="M18.7,11.1C18.7,11.1,18.7,11.1,18.7,11.1c0-0.2-0.1-0.3-0.3-0.3c-0.1,0-0.2,0-0.3,0.1C17,11.5,16,12,14.9,12.6  c-0.7,0.4-1.4,0.7-2.1,1.1c-0.1,0-0.2,0.1-0.2,0.1c-0.2,0-0.3,0-0.5-0.1c-1.7-0.9-3.5-1.8-5.2-2.7c-0.1,0-0.1-0.1-0.2-0.1  c-0.2,0-0.3,0-0.3,0.2c0,0.1,0,0.1,0,0.2c0,1.3,0,2.7,0,4c0,0.3,0.1,0.6,0.2,0.9c0.1,0.2,0.3,0.5,0.5,0.6c0.3,0.3,0.7,0.4,1.2,0.4  c1.4,0,2.8,0,4.2,0c1.4,0,2.8,0,4.2,0c0.1,0,0.2,0,0.3,0c0.5-0.1,0.8-0.3,1.1-0.6c0.2-0.2,0.3-0.5,0.4-0.8c0.1-0.2,0.1-0.5,0.1-0.7  C18.7,13.7,18.7,12.4,18.7,11.1z M6.6,9.4c0,0,0.1,0.1,0.1,0.1c1.8,1,3.7,1.9,5.5,2.9c0.2,0.1,0.3,0.1,0.5,0  c1.6-0.8,3.2-1.7,4.8-2.5c0.3-0.1,0.5-0.3,0.8-0.4c0.2-0.1,0.2-0.2,0.1-0.4c-0.1-0.1-0.2-0.3-0.2-0.4C18,8.3,17.8,8.1,17.5,8  c-0.2-0.1-0.5-0.1-0.8-0.1c-1.4,0-2.8,0-4.2,0c0,0,0,0,0,0c-1.4,0-2.8,0-4.1,0c-0.2,0-0.3,0-0.5,0C7.5,8,7.2,8.2,6.9,8.4  C6.7,8.6,6.6,8.8,6.5,9.1C6.4,9.2,6.5,9.3,6.6,9.4z"></path>
</g>
</svg>