<svg xmlns="http://www.w3.org/2000/svg" xmlns:xlink="http://www.w3.org/1999/xlink" class="sl-svg-ic sl-svg-ic--fb" version="1.1" x="0px" y="0px" width="25px" height="25px" viewBox="0 0 25 25" style="enable-background:new 0 0 25 25;" xml:space="preserve">
<style type="text/css">
.sl-svg-ic--fb__0 { fill:#000000; }
.sl-svg-ic--fb__1 { fill:#000000; }
.sl-svg-ic--fb__2 { fill:#FFFFFF; }
.sl-svg-ic--fb:hover .sl-svg-ic--fb__0 { fill:#FFFFFF; }
.sl-svg-ic--fb:hover .sl-svg-ic--fb__1 { fill:#E6E7E8; }
.sl-svg-ic--fb:hover .sl-svg-ic--fb__2 { fill:#231F20; }
</style>
<g>
<g>
<circle class="sl-svg-ic--fb__0" cx="12.5" cy="12.5" r="11.5"></circle>
<path class="sl-svg-ic--fb__1" d="M12.5,2C18.3,2,23,6.7,23,12.5S18.3,23,12.5,23S2,18.3,2,12.5S6.7,2,12.5,2 M12.5,0C5.6,0,0,5.6,0,12.5 S5.6,25,12.5,25C19.4,25,25,19.4,25,12.5S19.4,0,12.5,0L12.5,0z"></path>
</g>
<path class="sl-svg-ic--fb__2" d="M15.2,13.3l0.3-2.4h-2.4V9.4c0-0.4,0.1-0.6,0.2-0.8c0.2-0.2,0.5-0.3,0.9-0.3h1.2V6.2c-0.5-0.1-1.1-0.1-1.8-0.1 c-0.9,0-1.7,0.3-2.2,0.8s-0.8,1.3-0.8,2.3v1.7H8.6v2.4h2.1v6.1h2.4v-6.1H15.2z"></path>
</g>
</svg>