<svg xmlns="http://www.w3.org/2000/svg" xmlns:xlink="http://www.w3.org/1999/xlink" class="sl-svg-ic sl-svg-ic--ig" version="1.1" x="0px" y="0px" width="25px" height="25px" viewBox="0 0 25 25" style="enable-background:new 0 0 25 25;" xml:space="preserve">
<style type="text/css">
.sl-svg-ic--ig__0 { fill:#000000; }
.sl-svg-ic--ig__1 { fill:#000000; }
.sl-svg-ic--ig__2 { fill:#FFFFFF; }
.sl-svg-ic--ig:hover .sl-svg-ic--ig__0 { fill:#FFFFFF; }
.sl-svg-ic--ig:hover .sl-svg-ic--ig__1 { fill:#E6E7E8; }
.sl-svg-ic--ig:hover .sl-svg-ic--ig__2 { fill:#231F20; }
</style>
<g>
<g>
<circle class="sl-svg-ic--ig__0" cx="12.5" cy="12.5" r="11.5"></circle>
<path class="sl-svg-ic--ig__1" d="M12.5,2C18.3,2,23,6.7,23,12.5S18.3,23,12.5,23S2,18.3,2,12.5S6.7,2,12.5,2 M12.5,0C5.6,0,0,5.6,0,12.5 S5.6,25,12.5,25C19.4,25,25,19.4,25,12.5S19.4,0,12.5,0L12.5,0z"></path>
</g>
<path class="sl-svg-ic--ig__2" d="M18,10.1c0,0.5,0,1.3,0,2.4s0,1.9,0,2.4c0,0.5-0.1,0.9-0.2,1.3c-0.2,0.4-0.4,0.8-0.7,1.1  c-0.3,0.3-0.7,0.6-1.1,0.7c-0.4,0.1-0.8,0.2-1.3,0.2c-0.5,0-1.3,0-2.4,0s-1.9,0-2.4,0c-0.5,0-0.9-0.1-1.3-0.2  c-0.4-0.1-0.8-0.4-1.1-0.7s-0.6-0.7-0.7-1.1c-0.1-0.4-0.2-0.8-0.2-1.3c0-0.5,0-1.3,0-2.4s0-1.9,0-2.4c0-0.5,0.1-0.9,0.2-1.3  C6.8,8.4,7,8,7.4,7.7S8.1,7.2,8.5,7c0.4-0.1,0.8-0.2,1.3-0.2s1.3,0,2.4,0s1.9,0,2.4,0c0.5,0,0.9,0.1,1.3,0.2  c0.4,0.2,0.8,0.4,1.1,0.7c0.3,0.3,0.6,0.7,0.7,1.1C17.9,9.2,17.9,9.6,18,10.1z M16.7,16c0.1-0.3,0.2-0.8,0.2-1.4c0-0.4,0-0.9,0-1.6  v-0.8c0-0.7,0-1.2,0-1.6c0-0.7-0.1-1.1-0.2-1.4c-0.2-0.5-0.6-0.9-1.1-1.1c-0.3-0.1-0.7-0.2-1.4-0.2c-0.4,0-0.9,0-1.6,0h-0.8  c-0.7,0-1.2,0-1.6,0C9.5,7.8,9.1,7.9,8.8,8C8.2,8.2,7.9,8.6,7.7,9.1c-0.1,0.3-0.2,0.7-0.2,1.4c0,0.4,0,0.9,0,1.6V13  c0,0.7,0,1.2,0,1.6c0,0.6,0.1,1.1,0.2,1.4c0.2,0.5,0.6,0.9,1.1,1.1c0.3,0.1,0.8,0.2,1.4,0.2c0.4,0,0.9,0,1.6,0h0.8  c0.7,0,1.2,0,1.6,0c0.7,0,1.1-0.1,1.4-0.2C16.2,16.9,16.5,16.5,16.7,16z M12.2,9.6c0.5,0,1,0.1,1.5,0.4c0.5,0.3,0.8,0.6,1.1,1.1  c0.3,0.5,0.4,1,0.4,1.5c0,0.5-0.1,1-0.4,1.5c-0.3,0.5-0.6,0.8-1.1,1.1c-0.5,0.3-1,0.4-1.5,0.4c-0.5,0-1-0.1-1.5-0.4  c-0.5-0.3-0.8-0.6-1.1-1.1c-0.3-0.5-0.4-1-0.4-1.5c0-0.5,0.1-1,0.4-1.5c0.3-0.5,0.6-0.8,1.1-1.1C11.2,9.7,11.7,9.6,12.2,9.6z  M12.2,14.5c0.5,0,1-0.2,1.4-0.6c0.4-0.4,0.6-0.8,0.6-1.4c0-0.5-0.2-1-0.6-1.4c-0.4-0.4-0.8-0.6-1.4-0.6c-0.5,0-1,0.2-1.4,0.6  c-0.4,0.4-0.6,0.8-0.6,1.4c0,0.5,0.2,1,0.6,1.4C11.2,14.3,11.7,14.5,12.2,14.5z M16,9.4c0-0.2-0.1-0.4-0.2-0.5  c-0.1-0.1-0.3-0.2-0.5-0.2S15,8.8,14.8,8.9c-0.1,0.1-0.2,0.3-0.2,0.5s0.1,0.4,0.2,0.5c0.1,0.1,0.3,0.2,0.5,0.2s0.4-0.1,0.5-0.2  C15.9,9.8,16,9.6,16,9.4z"></path>
</g>
</svg>