<svg xmlns="http://www.w3.org/2000/svg" xmlns:xlink="http://www.w3.org/1999/xlink" class="sl-svg-ic sl-svg-ic--tw" version="1.1" x="0px" y="0px" width="25px" height="25px" viewBox="0 0 25 25" style="enable-background:new 0 0 25 25;" xml:space="preserve">
<style type="text/css">
.sl-svg-ic--tw__0 { fill:#000000; }
.sl-svg-ic--tw__1 { fill:#000000; }
.sl-svg-ic--tw__2 { fill:#FFFFFF; }
.sl-svg-ic--tw:hover .sl-svg-ic--tw__0 { fill:#FFFFFF; }
.sl-svg-ic--tw:hover .sl-svg-ic--tw__1 { fill:#E6E7E8; }
.sl-svg-ic--tw:hover .sl-svg-ic--tw__2 { fill:#231F20; }
</style>
<g>
<g>
<circle class="sl-svg-ic--tw__0" cx="12.5" cy="12.5" r="11.5"></circle>
<path class="sl-svg-ic--tw__1" d="M12.5,2C18.3,2,23,6.7,23,12.5S18.3,23,12.5,23S2,18.3,2,12.5S6.7,2,12.5,2 M12.5,0C5.6,0,0,5.6,0,12.5 S5.6,25,12.5,25C19.4,25,25,19.4,25,12.5S19.4,0,12.5,0L12.5,0z"></path>
</g>
<path class="sl-svg-ic--tw__2" d="M17.2,10.3c0,1.1-0.3,2.2-0.8,3.2c-0.5,1.1-1.3,1.9-2.3,2.6c-1.1,0.7-2.3,1.1-3.7,1.1c-1.3,0-2.6-0.4-3.7-1.1       c0.2,0,0.4,0,0.6,0c1.1,0,2.1-0.3,3-1c-0.5,0-1-0.2-1.4-0.5S8.1,13.9,8,13.5c0.2,0,0.3,0,0.4,0c0.2,0,0.4,0,0.6-0.1       c-0.5-0.1-1-0.4-1.4-0.8s-0.5-0.9-0.5-1.5v0c0.3,0.2,0.7,0.3,1.1,0.3c-0.3-0.2-0.6-0.5-0.8-0.9S7.1,9.7,7.1,9.3       c0-0.4,0.1-0.8,0.3-1.2c0.6,0.7,1.3,1.3,2.2,1.8c0.9,0.4,1.8,0.7,2.8,0.7c0-0.2,0-0.4,0-0.5c0-0.4,0.1-0.8,0.3-1.2       c0.2-0.4,0.5-0.7,0.9-0.9c0.4-0.2,0.8-0.3,1.2-0.3c0.4,0,0.7,0.1,1,0.2C16,8,16.3,8.2,16.5,8.4c0.5-0.1,1.1-0.3,1.5-0.6       c-0.2,0.6-0.5,1-1.1,1.3c0.5-0.1,0.9-0.2,1.4-0.4C18,9.3,17.6,9.7,17.1,10C17.2,10.1,17.2,10.2,17.2,10.3z"></path>
</g>
</svg>