<svg xmlns="http://www.w3.org/2000/svg" xmlns:xlink="http://www.w3.org/1999/xlink" class="sl-svg-ic sl-svg-ic--yt" version="1.1" x="0px" y="0px" width="25px" height="25px" viewBox="0 0 25 25" style="enable-background:new 0 0 25 25;" xml:space="preserve">
<style type="text/css">
.sl-svg-ic--yt__0 { fill:#000000; }
.sl-svg-ic--yt__1 { fill:#000000; }
.sl-svg-ic--yt__2 { fill:#FFFFFF; }
.sl-svg-ic--yt:hover .sl-svg-ic--yt__0 { fill:#FFFFFF; }
.sl-svg-ic--yt:hover .sl-svg-ic--yt__1 { fill:#E6E7E8; }
.sl-svg-ic--yt:hover .sl-svg-ic--yt__2 { fill:#231F20; }
</style>
<g>
<g>
<circle class="sl-svg-ic--yt__0" cx="12.5" cy="12.5" r="11.5"></circle>
<path class="sl-svg-ic--yt__1" d="M12.5,2C18.3,2,23,6.7,23,12.5S18.3,23,12.5,23S2,18.3,2,12.5S6.7,2,12.5,2 M12.5,0C5.6,0,0,5.6,0,12.5 S5.6,25,12.5,25C19.4,25,25,19.4,25,12.5S19.4,0,12.5,0L12.5,0z"></path>
</g>
<path class="sl-svg-ic--yt__2" d="M16.5,8.6c0.6,0.1,1,0.4,1.2,0.9c0.2,0.4,0.3,1.6,0.3,2.7c0,1.5-0.1,2.6-0.4,3c-0.2,0.4-0.6,0.6-1,0.7  c-0.6,0.1-2.4,0.2-4.1,0.2c-1.5,0-3-0.1-3.8-0.1c-0.8-0.1-1.1-0.3-1.4-0.8c-0.2-0.4-0.3-1.6-0.3-2.8c0-1.4,0.1-2.6,0.4-3  C7.6,9,8,8.8,8.4,8.7c0.6-0.1,2.4-0.2,4.1-0.2C14.1,8.5,15.7,8.5,16.5,8.6z M14.2,12.3l-2.8-1.6v3.3L14.2,12.3z"></path>
</g>
</svg>