<svg version="1.1" id="Layer_1" class="shopping-info-icon" xmlns="http://www.w3.org/2000/svg" xmlns:xlink="http://www.w3.org/1999/xlink" x="0px" y="0px" width="16px" height="16px" viewBox="0 0 16 16" enable-background="new 0 0 16 16" xml:space="preserve">
        <g>
          <path fill="#231F20" d="M8,1.067c1.85,0,3.592,0.721,4.903,2.029c2.703,2.704,2.703,7.102,0,9.806
            C11.592,14.213,9.854,14.934,8,14.934c-1.851,0-3.593-0.722-4.902-2.029C1.788,11.593,1.066,9.85,1.066,8
            c0-1.851,0.721-3.594,2.03-4.904C4.405,1.787,6.148,1.067,8,1.067 M8,0C5.953,0,3.904,0.78,2.342,2.342
            c-3.124,3.125-3.124,8.19,0,11.313C3.904,15.221,5.953,16,8,16c2.045,0,4.094-0.779,5.657-2.344c3.125-3.124,3.125-8.188,0-11.312
            C12.094,0.78,10.045,0,8,0L8,0z"></path>
          <polygon fill="#231F20" points="6.678,10.922 4.384,8.632 5.14,7.878 6.678,9.413 11.074,5.014 11.828,5.768   "></polygon>
        </g>
      </svg>