
<svg xmlns="http://www.w3.org/2000/svg" width="66.643" height="70.409" viewBox="0 0 66.643 70.409"><g transform="translate(-640.147 -433.146)"><g transform="translate(641.647 434.646)"><g transform="translate(0)"><path d="M67.615,38.5A29.015,29.015,0,1,0,96.629,67.515,29.005,29.005,0,0,0,67.615,38.5Z" transform="translate(-38.6 -38.5)" fill="#fff" stroke="#78c257" stroke-width="3"/><path d="M75.789,45.3l-8.62,28.489h-.21L58.338,45.3,47.3,81.779h2.1s1.367-6.308,3.679-10.2c1.262-2.1,3.154-3.785,5.677-3.679,1.787,0,3.364,1.051,5.361,3.785.421.631.946,1.577,1.472,2.523.841,1.577,1.577,3.259,1.577,3.259a42.378,42.378,0,0,1,2.944-5.782c2-2.733,3.469-3.679,5.361-3.785a6.758,6.758,0,0,1,5.677,3.679c2.313,3.89,3.679,10.2,3.679,10.2h2.1Z" transform="translate(-38.154 -38.151)" fill="#78c257"/></g></g><path d="M.461,2.78C4.91.185,11.4,0,11.4,0s6.488.185,10.937,2.78c0,0,3.893,15.757-10.937,22.245C-3.432,18.537.461,2.78.461,2.78Z" transform="translate(680.443 474.709)" fill="none" stroke="#fff" stroke-width="7"/><path d="M1100.555,67.776s6.488.185,10.937,2.78c0,0,3.893,15.757-10.937,22.245Z" transform="translate(-408.714 406.933)" fill="#6fb749"/><path d="M1091.526,67.776s-6.488.185-10.937,2.78c0,0-3.893,15.757,10.937,22.245Z" transform="translate(-399.684 406.933)" fill="#78c257"/><path d="M0,2.665,3.451,6.633,10.737,0" transform="matrix(0.995, -0.105, 0.105, 0.995, 686.261, 483.42)" fill="none" stroke="#fff" stroke-width="2"/></g></svg>