<?xml version="1.0" encoding="UTF-8"?>
<!-- Generator: Adobe Illustrator 19.2.1, SVG Export Plug-In . SVG Version: 6.00 Build 0)  -->
<svg version="1.1" id="Layer_1" xmlns="http://www.w3.org/2000/svg" xmlns:xlink="http://www.w3.org/1999/xlink" x="0px" y="0px" viewBox="0 0 533.3 1600" style="enable-background:new 0 0 533.3 1600;" xml:space="preserve">
<style type="text/css">
	.st0{fill:#C6BFB6;}
	.st1{fill:#FFFFFF;}
</style>
<g>
	<rect class="st0" width="533.3" height="1600"/>
	<g>
		<path class="st1" d="M179.7,903c0,23.6,11,50.5,32.9,66.9l0,0l0,0h-29.4v56.4h205.3v-56.4H271.7c-21,0-43.4-16.3-43.4-46.5    c0-23.3,16.2-47.5,43.4-47.5h116.8v-56.4H261.2C214,819.6,179.7,853.4,179.7,903"/>
		<polygon class="st1" points="183.2,419 323,469.9 183.2,520.9 183.2,585.3 388.4,500.8 388.4,439.1 183.2,354.6   "/>
		<path class="st1" d="M325.3,1086.2c17.6,23.7,21.7,37.3,21.7,58.9c0,19.5-6,34.7-16.6,45.5l-59.8-144.1    c-22.3,3.1-42.2,11.6-57.3,24.6c-22,18.9-33.6,47-33.6,81.1c0,62,45.7,108.7,106.1,108.7c62,0,106.1-46.8,106.1-114.9    c0-38.1-18.1-77.1-39.2-95.4L325.3,1086.2z M245,1194.5c-12.9-9.6-20.5-24.9-20.5-43.4c0-20.3,11.6-35.7,28.7-43.7l40.9,98.5    C273.2,1208.6,256.8,1203.3,245,1194.5z"/>
		<polygon class="st1" points="336.7,1266.3 336.7,1394.4 121.8,1394.4 121.8,1451.5 388.5,1451.5 388.5,1266.3   "/>
		<path class="st1" d="M391.9,253.4c0,61.6-45.9,109.9-106.1,109.9c-59.5,0-106.1-48.6-106.1-110.7c0-61.6,45.9-109.9,106.1-109.9    C345.3,142.7,391.9,191.3,391.9,253.4 M228,253.4c0,31.5,23.9,54.3,57.8,54.3c32.4,0,57.8-24.2,57.8-55.1    c0-31.5-24.5-54.3-57.8-54.3C253.4,198.3,228,222.5,228,253.4"/>
		<path class="st1" d="M391.9,687.4c0,61.6-45.9,109.9-106.1,109.9c-59.5,0-106.1-48.6-106.1-110.7c0-61.6,45.9-109.9,106.1-109.9    C345.3,576.7,391.9,625.3,391.9,687.4 M228,687.4c0,31.5,23.9,54.3,57.8,54.3c32.4,0,57.8-24.2,57.8-55.1    c0-31.5-24.5-54.3-57.8-54.3C253.4,632.3,228,656.5,228,687.4"/>
		<g>
			<path class="st1" d="M364.1,135v9.1h-5.2v-23.9h5.2v9.1h24.4v5.7L364.1,135L364.1,135z M358.9,113.9v-6l14-8.9l-14-8.9v-5.9h29.6     v5.5h-21l14.2,9.1v0.6l-14.2,9.1h21v5.5L358.9,113.9L358.9,113.9z"/>
		</g>
	</g>
</g>
</svg>