<svg xmlns="http://www.w3.org/2000/svg" xmlns:xlink="http://www.w3.org/1999/xlink" width="395" height="84" viewBox="0 0 395 84">
  <defs>
    <style>
      .cls-1 {
        fill: none;
      }

      .cls-2 {
        isolation: isolate;
      }

      .cls-3 {
        fill: #fcfcfc;
      }

      .cls-4 {
        fill: #fff;
      }

      .cls-5 {
        clip-path: url(#clip-path);
      }

      .cls-6 {
        opacity: 0.5;
      }

      .cls-7 {
        clip-path: url(#clip-path-2);
      }

      .cls-8 {
        opacity: 0;
      }

      .cls-9 {
        opacity: 0.05;
      }

      .cls-10 {
        clip-path: url(#clip-path-5);
      }

      .cls-11 {
        opacity: 0.1;
      }

      .cls-12 {
        clip-path: url(#clip-path-6);
      }

      .cls-13 {
        opacity: 0.15;
      }

      .cls-14 {
        clip-path: url(#clip-path-7);
      }

      .cls-15 {
        opacity: 0.2;
      }

      .cls-16 {
        clip-path: url(#clip-path-8);
      }

      .cls-17 {
        opacity: 0.25;
      }

      .cls-18 {
        clip-path: url(#clip-path-9);
      }

      .cls-19 {
        opacity: 0.3;
      }

      .cls-20 {
        clip-path: url(#clip-path-10);
      }

      .cls-21 {
        opacity: 0.35;
      }

      .cls-22 {
        clip-path: url(#clip-path-11);
      }

      .cls-23 {
        opacity: 0.4;
      }

      .cls-24 {
        clip-path: url(#clip-path-12);
      }

      .cls-25 {
        opacity: 0.45;
      }

      .cls-26 {
        clip-path: url(#clip-path-13);
      }

      .cls-27 {
        clip-path: url(#clip-path-14);
      }

      .cls-28 {
        opacity: 0.55;
      }

      .cls-29 {
        clip-path: url(#clip-path-15);
      }

      .cls-30 {
        opacity: 0.6;
      }

      .cls-31 {
        clip-path: url(#clip-path-16);
      }

      .cls-32 {
        opacity: 0.65;
      }

      .cls-33 {
        clip-path: url(#clip-path-17);
      }

      .cls-34 {
        opacity: 0.7;
      }

      .cls-35 {
        clip-path: url(#clip-path-18);
      }

      .cls-36 {
        opacity: 0.75;
      }

      .cls-37 {
        clip-path: url(#clip-path-19);
      }

      .cls-38 {
        opacity: 0.8;
      }

      .cls-39 {
        clip-path: url(#clip-path-20);
      }

      .cls-40 {
        opacity: 0.85;
      }

      .cls-41 {
        clip-path: url(#clip-path-21);
      }

      .cls-42 {
        opacity: 0.9;
      }

      .cls-43 {
        clip-path: url(#clip-path-22);
      }

      .cls-44 {
        opacity: 0.95;
      }

      .cls-45 {
        clip-path: url(#clip-path-23);
      }
    </style>
    <clipPath id="clip-path">
      <rect id="Rectangle_259" data-name="Rectangle 259" class="cls-1" width="395" height="84" transform="translate(680.13)"/>
    </clipPath>
    <clipPath id="clip-path-2">
      <rect id="Rectangle_258" data-name="Rectangle 258" class="cls-1" width="377.672" height="467.79" transform="translate(589.13 -210)"/>
    </clipPath>
    <clipPath id="clip-path-5">
      <rect id="Rectangle_238" data-name="Rectangle 238" class="cls-1" width="359.649" height="439.381" transform="translate(598.14 -192.887)"/>
    </clipPath>
    <clipPath id="clip-path-6">
      <rect id="Rectangle_239" data-name="Rectangle 239" class="cls-1" width="341.752" height="411.665" transform="translate(607.087 -176.498)"/>
    </clipPath>
    <clipPath id="clip-path-7">
      <rect id="Rectangle_240" data-name="Rectangle 240" class="cls-1" width="323.975" height="384.904" transform="translate(615.975 -160.816)"/>
    </clipPath>
    <clipPath id="clip-path-8">
      <rect id="Rectangle_241" data-name="Rectangle 241" class="cls-1" width="306.315" height="358.94" transform="translate(624.804 -145.813)"/>
    </clipPath>
    <clipPath id="clip-path-9">
      <rect id="Rectangle_242" data-name="Rectangle 242" class="cls-1" width="288.767" height="333.757" transform="translate(633.578 -131.462)"/>
    </clipPath>
    <clipPath id="clip-path-10">
      <rect id="Rectangle_243" data-name="Rectangle 243" class="cls-1" width="271.325" height="309.343" transform="translate(642.298 -117.739)"/>
    </clipPath>
    <clipPath id="clip-path-11">
      <rect id="Rectangle_244" data-name="Rectangle 244" class="cls-1" width="253.985" height="285.684" transform="translate(650.968 -104.62)"/>
    </clipPath>
    <clipPath id="clip-path-12">
      <rect id="Rectangle_245" data-name="Rectangle 245" class="cls-1" width="236.741" height="262.758" transform="translate(659.59 -92.075)"/>
    </clipPath>
    <clipPath id="clip-path-13">
      <rect id="Rectangle_246" data-name="Rectangle 246" class="cls-1" width="219.587" height="240.554" transform="translate(668.167 -80.078)"/>
    </clipPath>
    <clipPath id="clip-path-14">
      <rect id="Rectangle_247" data-name="Rectangle 247" class="cls-1" width="202.518" height="219.05" transform="translate(676.702 -68.602)"/>
    </clipPath>
    <clipPath id="clip-path-15">
      <rect id="Rectangle_248" data-name="Rectangle 248" class="cls-1" width="185.527" height="198.218" transform="translate(685.198 -57.614)"/>
    </clipPath>
    <clipPath id="clip-path-16">
      <rect id="Rectangle_249" data-name="Rectangle 249" class="cls-1" width="168.608" height="178.037" transform="translate(693.658 -47.084)"/>
    </clipPath>
    <clipPath id="clip-path-17">
      <rect id="Rectangle_250" data-name="Rectangle 250" class="cls-1" width="151.756" height="158.48" transform="translate(702.084 -36.982)"/>
    </clipPath>
    <clipPath id="clip-path-18">
      <rect id="Rectangle_251" data-name="Rectangle 251" class="cls-1" width="134.962" height="139.509" transform="translate(710.481 -27.266)"/>
    </clipPath>
    <clipPath id="clip-path-19">
      <rect id="Rectangle_252" data-name="Rectangle 252" class="cls-1" width="118.218" height="121.081" transform="translate(718.853 -17.901)"/>
    </clipPath>
    <clipPath id="clip-path-20">
      <rect id="Rectangle_253" data-name="Rectangle 253" class="cls-1" width="101.521" height="103.147" transform="translate(727.202 -8.843)"/>
    </clipPath>
    <clipPath id="clip-path-21">
      <rect id="Rectangle_254" data-name="Rectangle 254" class="cls-1" width="84.861" height="85.649" transform="translate(735.533 -0.045)"/>
    </clipPath>
    <clipPath id="clip-path-22">
      <rect id="Rectangle_255" data-name="Rectangle 255" class="cls-1" width="68.229" height="68.518" transform="translate(743.848 8.54)"/>
    </clipPath>
    <clipPath id="clip-path-23">
      <rect id="Rectangle_256" data-name="Rectangle 256" class="cls-1" width="51.62" height="51.676" transform="translate(752.153 16.966)"/>
    </clipPath>
  </defs>
  <g id="desktop-header-logo-with-tagline-and-net" transform="translate(-680.13)">
    <g id="The_Official_Global_Blog" data-name="The Official Global Blog" class="cls-2">
      <g id="Group_241" data-name="Group 241" class="cls-2">
        <path id="Path_76" data-name="Path 76" class="cls-3" d="M958.405,26.261h-4.393V25.4h9.723v.865h-4.394V38h-.936Z"/>
        <path id="Path_77" data-name="Path 77" class="cls-3" d="M966.018,24.856h.882v5.671a3.6,3.6,0,0,1,3.314-1.925,3.5,3.5,0,0,1,3.672,3.781V38h-.881V32.544a2.8,2.8,0,0,0-2.918-3.133,3.149,3.149,0,0,0-3.187,3.277V38h-.882Z"/>
        <path id="Path_78" data-name="Path 78" class="cls-3" d="M976.422,33.427v-.036a4.525,4.525,0,0,1,4.357-4.789c2.575,0,4.213,2.087,4.213,4.806a2.19,2.19,0,0,1-.019.361h-7.615a3.641,3.641,0,0,0,3.6,3.619,4.121,4.121,0,0,0,3.151-1.441l.611.54a4.822,4.822,0,0,1-3.8,1.729A4.563,4.563,0,0,1,976.422,33.427Zm7.616-.45c-.126-1.855-1.189-3.566-3.3-3.566a3.577,3.577,0,0,0-3.385,3.566Z"/>
        <path id="Path_79" data-name="Path 79" class="cls-3" d="M992.6,31.734V31.7a6.34,6.34,0,1,1,12.676-.036V31.7a6.34,6.34,0,1,1-12.676.036Zm11.7,0V31.7a5.455,5.455,0,0,0-5.384-5.672,5.4,5.4,0,0,0-5.348,5.636V31.7a5.455,5.455,0,0,0,5.385,5.672A5.394,5.394,0,0,0,1004.307,31.734Z"/>
        <path id="Path_80" data-name="Path 80" class="cls-3" d="M1008.8,29.628h-1.332v-.811h1.332v-.9a3.314,3.314,0,0,1,.811-2.4,2.62,2.62,0,0,1,1.926-.72,3.879,3.879,0,0,1,1.369.217v.828a4.3,4.3,0,0,0-1.369-.235c-1.26,0-1.855.756-1.855,2.323v.882h3.205v.811h-3.205V38h-.882Zm6.518,0h-1.332v-.811h1.332v-.9a3.314,3.314,0,0,1,.811-2.4,2.62,2.62,0,0,1,1.925-.72,3.875,3.875,0,0,1,1.369.217v.828a4.288,4.288,0,0,0-1.369-.235c-1.259,0-1.853.756-1.853,2.323v.882h3.205v.811H1016.2V38h-.883Zm6-4.412h1.1v1.207h-1.1Zm.107,3.6h.883V38h-.883Z"/>
        <path id="Path_81" data-name="Path 81" class="cls-3" d="M1025.147,33.444v-.036a4.768,4.768,0,0,1,4.682-4.806,4.822,4.822,0,0,1,3.673,1.692l-.63.647a4.145,4.145,0,0,0-3.062-1.511,3.793,3.793,0,0,0-3.709,3.943v.035a3.862,3.862,0,0,0,3.782,3.98,4.105,4.105,0,0,0,3.079-1.531l.611.54a4.709,4.709,0,0,1-8.426-2.953Z"/>
        <path id="Path_82" data-name="Path 82" class="cls-3" d="M1036.073,25.216h1.1v1.207h-1.1Zm.108,3.6h.882V38h-.882Z"/>
        <path id="Path_83" data-name="Path 83" class="cls-3" d="M1039.781,35.335V35.3c0-1.908,1.638-2.988,4.015-2.988a11.089,11.089,0,0,1,3.043.4v-.4c0-1.855-1.134-2.809-3.025-2.809a6.17,6.17,0,0,0-2.881.737l-.324-.773a7.371,7.371,0,0,1,3.259-.793,3.967,3.967,0,0,1,2.9,1.009,3.478,3.478,0,0,1,.938,2.592V38h-.865V36.47a4.176,4.176,0,0,1-3.511,1.746C1041.618,38.216,1039.781,37.244,1039.781,35.335Zm7.076-.774V33.517a12.135,12.135,0,0,0-3.115-.414c-1.944,0-3.025.864-3.025,2.142v.036c0,1.332,1.26,2.107,2.665,2.107C1045.255,37.388,1046.857,36.235,1046.857,34.561Z"/>
        <path id="Path_84" data-name="Path 84" class="cls-3" d="M1050.995,24.856h.883V38h-.883Z"/>
      </g>
      <g id="Group_242" data-name="Group 242" class="cls-2">
        <path id="Path_85" data-name="Path 85" class="cls-3" d="M954.444,52.734V52.7a6.294,6.294,0,0,1,6.23-6.518,6.61,6.61,0,0,1,4.61,1.657l-.613.7a5.679,5.679,0,0,0-4.051-1.513,5.355,5.355,0,0,0-5.2,5.636V52.7c0,3.259,2.034,5.69,5.4,5.69a6.466,6.466,0,0,0,4.015-1.441V53.328H960.62v-.864h5.113v4.861a7.575,7.575,0,0,1-4.951,1.891A6.141,6.141,0,0,1,954.444,52.734Z"/>
        <path id="Path_86" data-name="Path 86" class="cls-3" d="M969.042,45.856h.882V59h-.882Z"/>
        <path id="Path_87" data-name="Path 87" class="cls-3" d="M972.768,54.444v-.036A4.743,4.743,0,0,1,977.5,49.6a4.7,4.7,0,0,1,4.7,4.771v.035a4.744,4.744,0,0,1-4.735,4.808A4.7,4.7,0,0,1,972.768,54.444Zm8.481,0v-.036a3.851,3.851,0,0,0-3.782-3.978,3.789,3.789,0,0,0-3.746,3.943v.035a3.852,3.852,0,0,0,3.782,3.98A3.79,3.79,0,0,0,981.249,54.444Z"/>
        <path id="Path_88" data-name="Path 88" class="cls-3" d="M985.8,57.02V59h-.881V45.856h.881V51.87a4.434,4.434,0,0,1,3.782-2.268,4.56,4.56,0,0,1,4.466,4.771v.035a4.594,4.594,0,0,1-4.466,4.808A4.42,4.42,0,0,1,985.8,57.02Zm7.293-2.576v-.036a3.7,3.7,0,0,0-3.6-3.961,3.846,3.846,0,0,0-3.744,3.944v.036a3.834,3.834,0,0,0,3.744,3.943A3.592,3.592,0,0,0,993.092,54.444Z"/>
        <path id="Path_89" data-name="Path 89" class="cls-3" d="M996.042,56.335V56.3c0-1.908,1.638-2.988,4.015-2.988a11.1,11.1,0,0,1,3.043.4v-.4c0-1.855-1.134-2.809-3.025-2.809a6.163,6.163,0,0,0-2.881.737l-.324-.773a7.364,7.364,0,0,1,3.259-.793,3.968,3.968,0,0,1,2.9,1.009,3.489,3.489,0,0,1,.936,2.592V59h-.864V57.47a4.178,4.178,0,0,1-3.511,1.746C997.878,59.216,996.042,58.244,996.042,56.335Zm7.076-.774V54.517A12.14,12.14,0,0,0,1000,54.1c-1.945,0-3.026.864-3.026,2.142v.036c0,1.332,1.261,2.107,2.666,2.107C1001.515,58.388,1003.118,57.235,1003.118,55.561Z"/>
        <path id="Path_90" data-name="Path 90" class="cls-3" d="M1007.256,45.856h.881V59h-.881Z"/>
        <path id="Path_91" data-name="Path 91" class="cls-3" d="M1017.21,46.4h5.2a4.585,4.585,0,0,1,3.277,1.117,2.715,2.715,0,0,1,.81,1.98v.036a3.116,3.116,0,0,1-2.143,2.989c1.513.4,2.845,1.26,2.845,3.007v.036c0,2.107-1.8,3.439-4.52,3.439h-5.472Zm8.336,3.187c0-1.386-1.135-2.322-3.151-2.322h-4.25v4.951h4.16c1.89,0,3.241-.918,3.241-2.593Zm-3.133,3.493h-4.268v5.06h4.574c2.161,0,3.529-.99,3.529-2.575v-.036C1026.248,53.977,1024.9,53.076,1022.413,53.076Z"/>
        <path id="Path_92" data-name="Path 92" class="cls-3" d="M1030.133,45.856h.881V59h-.881Z"/>
        <path id="Path_93" data-name="Path 93" class="cls-3" d="M1033.858,54.444v-.036a4.744,4.744,0,0,1,4.736-4.806,4.7,4.7,0,0,1,4.7,4.771v.035a4.745,4.745,0,0,1-4.737,4.808A4.7,4.7,0,0,1,1033.858,54.444Zm8.481,0v-.036a3.85,3.85,0,0,0-3.782-3.978,3.788,3.788,0,0,0-3.744,3.943v.035a3.85,3.85,0,0,0,3.781,3.98A3.789,3.789,0,0,0,1042.339,54.444Z"/>
        <path id="Path_94" data-name="Path 94" class="cls-3" d="M1045.829,60.513l.521-.721a6,6,0,0,0,3.709,1.3,3.3,3.3,0,0,0,3.6-3.566V56.191a4.568,4.568,0,0,1-3.835,2.124,4.348,4.348,0,0,1-4.411-4.321v-.035a4.367,4.367,0,0,1,4.411-4.357,4.562,4.562,0,0,1,3.835,2.052V49.817h.883v7.76a4.253,4.253,0,0,1-1.171,3.115,4.65,4.65,0,0,1-3.331,1.225A6.934,6.934,0,0,1,1045.829,60.513Zm7.887-6.536V53.94a3.644,3.644,0,0,0-3.8-3.493,3.394,3.394,0,0,0-3.547,3.476v.036a3.488,3.488,0,0,0,3.547,3.511A3.669,3.669,0,0,0,1053.716,53.977Z"/>
      </g>
    </g>
    <rect id="Rectangle_200" data-name="Rectangle 200" class="cls-4" width="1" height="48" transform="translate(936.13 18)"/>
    <g id="Group_288" data-name="Group 288">
      <g id="Group_287" data-name="Group 287" class="cls-5">
        <g id="Mask_Group_37" data-name="Mask Group 37">
          <g id="Group_172" data-name="Group 172" class="cls-6">
            <g id="Group_286" data-name="Group 286">
              <g id="Group_285" data-name="Group 285" class="cls-7">
                <g id="Group_171" data-name="Group 171">
                  <g id="Group_170" data-name="Group 170">
                    <g id="Group_284" data-name="Group 284">
                      <g id="Group_283" data-name="Group 283" class="cls-7">
                        <g id="Group_169" data-name="Group 169">
                          <g id="Group_111" data-name="Group 111" class="cls-8">
                            <g id="Group_110" data-name="Group 110">
                              <g id="Group_244" data-name="Group 244">
                                <g id="Group_243" data-name="Group 243" class="cls-7">
                                  <g id="Group_109" data-name="Group 109">
                                    <g id="Path_32" data-name="Path 32">
                                      <path id="Path_95" data-name="Path 95" class="cls-4" d="M725.32,257.779a42.877,42.877,0,0,1-8.925-.932c-19.473-3.8-38.85-21.35-57.587-52.173C629.278,155.809,605.249,82.5,594.532,8.56c-13.388-91.582-1.574-168.57,30.834-200.917,16.124-17.305,38.042-21.935,65.12-13.746,25.894,7.829,55.428,27.007,87.776,57h0c35.6,32.241,69.6,69.459,96.91,99.365l4.09,4.477q6.922,7.673,13.366,14.8c22.676,25.091,40.586,44.91,53.035,59.745,22.35,26.645,25.991,37.9,15.584,48.176-5.965,5.629-15.343,10.673-27.216,17.06-17.552,9.441-39.4,21.191-61.84,41.012-16.537,13.528-33.216,31.758-50.874,51.059-13.927,15.222-28.327,30.962-43.036,44.678C758.758,249.036,741.332,257.778,725.32,257.779Zm-59.191-466.8c-15.862,0-29.272,5.8-40.044,17.361-32.2,32.141-43.907,108.8-30.563,200.078,10.7,73.811,34.678,146.983,64.142,195.739,18.583,30.573,37.738,47.971,56.93,51.711,18.107,3.845,38.06-4.445,61.009-25.336,14.676-13.685,29.062-29.41,42.976-44.617,17.683-19.328,34.386-37.585,50.964-51.145,22.517-19.886,44.416-31.666,62.013-41.132,11.809-6.352,21.135-11.368,27-16.9,9.9-9.771,6.239-20.711-15.656-46.815C932.46,15.1,914.555-4.71,891.887-29.794q-6.441-7.126-13.365-14.8l-4.088-4.474c-27.3-29.891-61.277-67.09-96.844-99.3l0,0c-32.238-29.89-61.64-48.993-87.389-56.779A83.418,83.418,0,0,0,666.129-209.023Z"/>
                                    </g>
                                  </g>
                                </g>
                              </g>
                            </g>
                          </g>
                          <g id="Group_114" data-name="Group 114" class="cls-9">
                            <g id="Group_113" data-name="Group 113">
                              <g id="Group_246" data-name="Group 246">
                                <g id="Group_245" data-name="Group 245" class="cls-10">
                                  <g id="Group_112" data-name="Group 112">
                                    <g id="Path_33" data-name="Path 33">
                                      <path id="Path_96" data-name="Path 96" class="cls-4" d="M727.459,246.486a43.327,43.327,0,0,1-9.129-.966c-18.808-3.74-37.385-20.243-55.205-49.052C635.1,150.9,612.558,82.434,602.83,13.307c-12.111-85.315-.413-157.577,30.531-188.584,30.321-32.559,81.787-19.876,144.9,35.726,34.961,30.083,68.114,65.155,94.751,93.336l.791.838c26.2,28.064,48.823,52.3,63.218,69.361,21.551,25.544,25.431,37.375,15.968,48.689-6.14,7.051-16.591,13.4-29.822,21.447-15.416,9.371-34.6,21.033-54.157,38.388-14.934,12.334-30.086,28.349-46.127,45.305-14.41,15.232-29.311,30.982-44.606,44.525C759.556,238.52,742.832,246.485,727.459,246.486Zm-53.11-438.434c-15.884,0-29.451,5.75-40.269,17.365-30.738,30.8-42.328,102.739-30.26,187.75,9.71,69,32.2,137.325,60.156,182.776,17.668,28.563,36.023,44.913,54.558,48.6,17.53,3.775,36.851-3.736,59.082-22.954,15.256-13.51,30.142-29.244,44.538-44.461,16.063-16.979,31.235-33.015,46.2-45.377,19.611-17.4,38.838-29.091,54.287-38.482,13.157-8,23.55-14.317,29.581-21.242,9.048-10.818,5.169-22.336-15.971-47.4-14.379-17.042-37-41.269-63.182-69.321l-.789-.835C845.661-73.692,812.528-108.744,777.6-138.8l0,0C737.614-174.027,702.38-191.948,674.349-191.948Z"/>
                                    </g>
                                  </g>
                                </g>
                              </g>
                            </g>
                          </g>
                          <g id="Group_117" data-name="Group 117" class="cls-11">
                            <g id="Group_116" data-name="Group 116">
                              <g id="Group_248" data-name="Group 248">
                                <g id="Group_247" data-name="Group 247" class="cls-12">
                                  <g id="Group_115" data-name="Group 115">
                                    <g id="Path_34" data-name="Path 34">
                                      <path id="Path_97" data-name="Path 97" class="cls-4" d="M730.279,235.165a47.867,47.867,0,0,1-7.223-.546c-19.8-3.022-38.474-18.636-55.514-46.407C641,145.823,619.911,82.04,611.128,17.6c-10.894-79.26.651-146.908,30.128-176.547,28.907-31.038,77.564-20.806,136.993,28.817,34.317,27.979,66.6,60.979,90.175,85.073C896.586-15.914,915.44,3.97,928.476,19.366c20.693,24.429,24.792,36.79,16.24,48.988-6.221,8.559-17.734,16.3-32.31,26.1-13.331,8.962-29.924,20.115-46.682,35.041-13.312,11.083-26.881,24.957-41.245,39.647-14.9,15.237-30.309,30.993-46.212,44.323C761.735,227.887,745.626,235.165,730.279,235.165ZM682.217-175.546c-15.9,0-29.472,5.727-40.24,17.289C612.7-128.824,601.266-61.5,612.119,17.461c8.764,64.31,29.8,127.946,56.273,170.224,16.882,27.513,35.324,42.97,54.815,45.946,17.177,2.626,35.488-4.418,54.41-20.93,15.873-13.305,31.263-29.043,46.146-44.263,14.384-14.708,27.969-28.6,41.308-39.7,16.8-14.961,33.421-26.135,46.777-35.114,14.494-9.743,25.942-17.438,32.055-25.848,8.215-11.717,4.131-23.771-16.191-47.76-13.018-15.374-31.859-35.246-60.005-64.375-23.555-24.077-55.818-57.054-90.094-85l0,0C740.922-160,708.409-175.546,682.217-175.546Z"/>
                                    </g>
                                  </g>
                                </g>
                              </g>
                            </g>
                          </g>
                          <g id="Group_120" data-name="Group 120" class="cls-13">
                            <g id="Group_119" data-name="Group 119">
                              <g id="Group_250" data-name="Group 250">
                                <g id="Group_249" data-name="Group 249" class="cls-14">
                                  <g id="Group_118" data-name="Group 118">
                                    <g id="Path_35" data-name="Path 35">
                                      <path id="Path_98" data-name="Path 98" class="cls-4" d="M732.664,224.089a47.938,47.938,0,0,1-7.744-.627c-18.97-3.1-36.755-17.744-52.859-43.529-25.075-39.349-44.754-98.6-52.64-158.486-9.745-73.394,1.606-136.546,29.62-164.809,27.5-29.506,73.387-21.517,129.2,22.514C809.21-97,838.295-68.841,863.125-44.322c21.218,21.207,42.8,43.119,56.9,59.727,19.788,23.293,24.082,36.132,16.409,49.063-6.224,10.148-18.8,19.33-34.728,30.955-11.877,8.671-25.339,18.5-39.379,31.034-11.665,9.78-23.592,21.587-36.22,34.087-15.4,15.24-31.317,31-47.858,44.086C762.536,217.564,747.235,224.088,732.664,224.089ZM689.927-159.854c-15.9,0-29.459,5.7-40.164,17.185-27.813,28.06-39.056,90.891-29.349,163.985C628.28,81.067,647.9,140.163,672.907,179.4c15.947,25.534,33.5,40.026,52.174,43.077,16.559,2.7,34.238-3.56,52.544-18.624,16.505-13.059,32.406-28.8,47.783-44.019,12.642-12.515,24.585-24.335,36.269-34.132,14.065-12.558,27.548-22.4,39.445-31.086,15.834-11.559,28.342-20.69,34.46-30.664,7.4-12.472,3.131-25.007-16.315-47.9C905.182-.528,883.622-22.422,862.42-43.612c-24.806-24.5-53.865-52.628-84.792-76.447l-.005,0C744.135-146.48,714.285-159.854,689.927-159.854Z"/>
                                    </g>
                                  </g>
                                </g>
                              </g>
                            </g>
                          </g>
                          <g id="Group_123" data-name="Group 123" class="cls-15">
                            <g id="Group_122" data-name="Group 122">
                              <g id="Group_252" data-name="Group 252">
                                <g id="Group_251" data-name="Group 251" class="cls-16">
                                  <g id="Group_121" data-name="Group 121">
                                    <g id="Path_36" data-name="Path 36">
                                      <path id="Path_99" data-name="Path 99" class="cls-4" d="M735.176,213.127a48.048,48.048,0,0,1-8.29-.716c-18.131-3.17-35.021-16.886-50.2-40.765-23.626-36.433-41.932-91.3-48.965-146.76-8.662-67.734,2.453-126.5,29.009-153.366,26.09-27.978,69.246-22.014,121.507,16.8,28.59,20.722,55.19,45.176,79.677,68.515C883.977-18.023,900.56-.983,911.68,12.09,930.285,33.948,934.9,47.66,928.154,61,922,72.788,908.362,83.435,891.091,96.915c-9.771,7.627-20.846,16.272-32.251,26.477-10,8.433-20.233,18.251-31.071,28.645-15.892,15.24-32.324,31-49.526,43.808C763.385,207.335,748.935,213.126,735.176,213.127Zm-37.7-357.968c-15.874,0-29.4,5.657-40.026,17.053-26.354,26.663-37.363,85.112-28.738,152.548,7.016,55.321,25.264,110.029,48.815,146.344,15.028,23.638,31.693,37.2,49.535,40.322,15.912,2.78,32.931-2.729,50.58-16.378,17.159-12.775,33.569-28.513,49.44-43.734,10.848-10.4,21.1-20.232,31.107-28.677,11.418-10.218,22.508-18.874,32.291-26.51,17.175-13.4,30.741-23.994,36.788-35.586,6.616-13.072,2.187-26.03-16.346-47.8-11.1-13.047-27.66-30.065-53.7-55.18-24.459-23.313-51.03-47.74-79.576-68.431l-.005,0C747.249-133.444,720-144.841,697.472-144.841Z"/>
                                    </g>
                                  </g>
                                </g>
                              </g>
                            </g>
                          </g>
                          <g id="Group_126" data-name="Group 126" class="cls-17">
                            <g id="Group_125" data-name="Group 125">
                              <g id="Group_254" data-name="Group 254">
                                <g id="Group_253" data-name="Group 253" class="cls-18">
                                  <g id="Group_124" data-name="Group 124">
                                    <g id="Path_37" data-name="Path 37">
                                      <path id="Path_100" data-name="Path 100" class="cls-4" d="M737.8,202.295a48.155,48.155,0,0,1-8.853-.817c-17.275-3.231-33.271-16.051-47.546-38.108-22.193-33.631-39.162-84.262-45.392-135.434-3.723-30.335-3.164-59.427,1.616-84.13,4.889-25.264,14.115-45.352,26.677-58.1,24.691-26.444,65.151-22.3,113.918,11.673l0,0c62.785,44.422,111.707,96.957,125.206,112,17.879,20.992,22.486,34.6,16.442,48.533-6.022,13.488-20.758,25.616-39.416,40.971-7.677,6.318-16.379,13.48-25.209,21.387-8.3,7.041-16.8,14.952-25.8,23.326-16.383,15.251-33.324,31.022-51.219,43.5C764.279,197.206,750.718,202.295,737.8,202.295Zm-32.956-332.78c-15.816,0-29.288,5.608-39.82,16.888C640.131-88.346,629.4-34.164,637,27.814c6.212,51.027,23.123,101.5,45.237,135.009,14.123,21.821,29.9,34.494,46.892,37.671,15.244,2.854,31.565-1.93,48.52-14.206,17.845-12.443,34.759-28.189,51.117-43.417,9-8.383,17.509-16.3,25.822-23.348,8.835-7.912,17.545-15.081,25.231-21.405,18.555-15.271,33.212-27.333,39.135-40.6,5.865-13.519,1.3-26.83-16.279-47.472C889.205-4.97,840.347-57.436,777.647-101.8l0,0C750.264-120.875,725.547-130.485,704.846-130.485Z"/>
                                    </g>
                                  </g>
                                </g>
                              </g>
                            </g>
                          </g>
                          <g id="Group_129" data-name="Group 129" class="cls-19">
                            <g id="Group_128" data-name="Group 128">
                              <g id="Group_256" data-name="Group 256">
                                <g id="Group_255" data-name="Group 255" class="cls-20">
                                  <g id="Group_127" data-name="Group 127">
                                    <g id="Path_38" data-name="Path 38">
                                      <path id="Path_101" data-name="Path 101" class="cls-4" d="M740.537,191.6a47.957,47.957,0,0,1-9.431-.929c-16.4-3.28-31.5-15.239-44.878-35.547-20.773-30.946-36.446-77.493-41.921-124.51-6.791-57.876,3.48-106.992,27.474-131.384,23.295-24.907,61.1-22.388,106.429,7.1l0,0c48.373,31.965,92.2,73.116,117.08,100.968,16.873,19.824,21.593,33.7,16.3,47.9-5.832,15.225-21.7,28.813-41.792,46.018-5.862,5.02-11.925,10.211-18.243,15.871-6.564,5.589-13.256,11.65-20.34,18.067-16.886,15.3-34.348,31.112-53,43.243C765.214,187.187,752.579,191.6,740.537,191.6Zm-28.5-308.366c-15.726,0-29.117,5.547-39.537,16.688C649.065-76.246,638.645-26.216,645.3,30.5c5.457,46.866,21.069,93.248,41.761,124.072,13.227,20.08,28.11,31.9,44.241,35.12,14.538,2.909,30.142-1.17,46.364-12.118,18.587-12.093,36.019-27.882,52.876-43.151,7.091-6.422,13.788-12.488,20.354-18.079,6.317-5.659,12.385-10.854,18.251-15.878,19.983-17.112,35.767-30.627,41.507-45.612,5.149-13.808.481-27.395-16.115-46.892-24.833-27.8-68.584-68.879-116.876-100.791C753.175-108.755,730.924-116.761,712.039-116.761Z"/>
                                    </g>
                                  </g>
                                </g>
                              </g>
                            </g>
                          </g>
                          <g id="Group_132" data-name="Group 132" class="cls-21">
                            <g id="Group_131" data-name="Group 131">
                              <g id="Group_258" data-name="Group 258">
                                <g id="Group_257" data-name="Group 257" class="cls-22">
                                  <g id="Group_130" data-name="Group 130">
                                    <g id="Path_39" data-name="Path 39">
                                      <path id="Path_102" data-name="Path 102" class="cls-4" d="M743.441,181.038c-19.384,0-37.092-11.438-52.284-34.1C671.781,118.563,657.369,75.952,652.6,32.958c-5.893-52.739,4.033-97.914,26.551-120.843,21.886-23.365,57.064-22.273,99.044,3.087l0,0C824.561-56.325,864.93-19.319,887.25,5.82,903.1,24.465,907.9,38.526,903.3,52.845c-5.6,17-22.664,32.014-44.272,51.024q-5.474,4.813-11.272,9.974c-4.8,4.1-9.656,8.395-14.8,12.944-16.556,14.645-35.322,31.243-54.752,42.973C766.174,177.292,754.533,181.038,743.441,181.038Zm-24.42-284.674c-15.589,0-28.868,5.472-39.145,16.443C657.559-64.468,647.739-19.6,653.6,32.847c4.747,42.841,19.1,85.282,38.387,113.532,23.535,35.1,53.167,42.892,85.7,22.529,19.36-11.687,38.09-28.254,54.614-42.87,5.147-4.552,10.007-8.85,14.8-12.947,3.847-3.445,7.618-6.762,11.268-9.973,21.495-18.909,38.472-33.845,43.982-50.582,4.474-13.944-.268-27.721-15.855-46.06C864.23-18.6,823.945-55.53,777.678-83.944l0,0C755.965-97.061,736.106-103.636,719.021-103.636Z"/>
                                    </g>
                                  </g>
                                </g>
                              </g>
                            </g>
                          </g>
                          <g id="Group_135" data-name="Group 135" class="cls-23">
                            <g id="Group_134" data-name="Group 134">
                              <g id="Group_260" data-name="Group 260">
                                <g id="Group_259" data-name="Group 259" class="cls-24">
                                  <g id="Group_133" data-name="Group 133">
                                    <g id="Path_40" data-name="Path 40">
                                      <path id="Path_103" data-name="Path 103" class="cls-4" d="M746.3,170.689c-18.689,0-35.672-10.7-50.121-31.872C678.194,112.9,665,74.085,660.9,34.976c-5.058-47.8,4.484-89.152,25.524-110.607,20.5-21.827,53.086-21.968,91.76-.387l0,0C822.073-51.12,859.2-17.893,879.307,4.9c14.8,17.459,19.643,31.613,15.7,45.9-5.322,18.818-23.7,35.2-46.955,55.942l-4.194,3.743c-2.979,2.549-6.014,5.184-9.109,7.871-17,14.764-36.277,31.5-56.561,42.792C767.148,167.521,756.472,170.689,746.3,170.689ZM725.793-91.093c-15.4,0-28.534,5.385-38.647,16.155-20.842,21.252-30.278,62.3-25.252,109.809,4.087,38.95,17.213,77.6,35.113,103.379,21.969,32.2,49.869,39.813,80.689,22.029,20.2-11.249,39.431-27.946,56.4-42.677,3.1-2.689,6.133-5.326,9.106-7.87L847.387,106c23.14-20.634,41.416-36.931,46.657-55.465,3.844-13.931-.934-27.8-15.494-44.976C858.5-17.17,821.472-50.311,777.694-75.146h0C758.643-85.777,741.1-91.093,725.793-91.093Z"/>
                                    </g>
                                  </g>
                                </g>
                              </g>
                            </g>
                          </g>
                          <g id="Group_138" data-name="Group 138" class="cls-25">
                            <g id="Group_137" data-name="Group 137">
                              <g id="Group_262" data-name="Group 262">
                                <g id="Group_261" data-name="Group 261" class="cls-26">
                                  <g id="Group_136" data-name="Group 136">
                                    <g id="Path_41" data-name="Path 41">
                                      <path id="Path_104" data-name="Path 104" class="cls-4" d="M749.243,160.513c-17.974,0-34.226-9.984-47.928-29.72C684.448,106.9,672.74,72.608,669.2,36.705c-4.288-43.079,4.832-80.716,24.4-100.679,19.1-20.283,49.141-21.475,84.579-3.342l0,0c41.168,21.422,75.184,51.165,93.29,71.855C885.4,21.031,890.1,34.758,886.714,49.056c-4.641,19.16-22.347,36.107-46.853,57.957l-3.162,2.715c-17.46,15-37.249,32-58.524,42.857C768.153,157.881,758.47,160.513,749.243,160.513ZM732.331-79.093c-15.163,0-28.1,5.28-38.018,15.812C674.946-43.52,665.93-6.182,670.19,36.606c3.476,35.211,15.419,70.207,31.944,93.614,20.408,29.394,46.539,36.822,75.58,21.477,21.175-10.806,40.916-27.765,58.333-42.728l3.156-2.709c24.362-21.722,41.965-38.561,46.539-57.438,3.3-13.955-1.334-27.411-15.037-43.629-18.041-20.615-51.948-50.261-92.993-71.621C761.2-74.876,745.876-79.093,732.331-79.093Z"/>
                                    </g>
                                  </g>
                                </g>
                              </g>
                            </g>
                          </g>
                          <g id="Group_141" data-name="Group 141" class="cls-6">
                            <g id="Group_140" data-name="Group 140">
                              <g id="Group_264" data-name="Group 264">
                                <g id="Group_263" data-name="Group 263" class="cls-27">
                                  <g id="Group_139" data-name="Group 139">
                                    <g id="Path_42" data-name="Path 42">
                                      <path id="Path_105" data-name="Path 105" class="cls-4" d="M752.244,150.505c-17.234,0-32.741-9.29-45.7-27.63-15.492-21.586-26.084-52.466-29.057-84.717-3.58-38.559,5.078-72.6,23.162-91.06,17.7-18.746,45.231-20.8,77.5-5.782h0c38.231,18.1,69.27,44.623,85.57,63.406,12.852,15.286,17.521,28.9,14.7,42.864-4.2,20.261-22.578,37.969-42.67,55.829-17.9,15.354-37.091,31.135-57.6,40.642C769.185,148.364,760.515,150.505,752.244,150.505ZM738.6-67.618c-14.852,0-27.547,5.157-37.23,15.41-17.886,18.259-26.44,52-22.886,90.273,2.958,32.081,13.482,62.782,28.876,84.23,18.856,26.692,43.189,33.9,70.369,20.857,20.4-9.455,39.524-25.186,57.368-40.49,19.954-17.737,38.215-35.317,42.348-55.275,2.757-13.635-1.844-26.986-14.48-42.014-16.227-18.7-47.145-45.116-85.237-63.152C763.616-64.348,750.425-67.618,738.6-67.618Z"/>
                                    </g>
                                  </g>
                                </g>
                              </g>
                            </g>
                          </g>
                          <g id="Group_144" data-name="Group 144" class="cls-28">
                            <g id="Group_143" data-name="Group 143">
                              <g id="Group_266" data-name="Group 266">
                                <g id="Group_265" data-name="Group 265" class="cls-29">
                                  <g id="Group_142" data-name="Group 142">
                                    <g id="Path_43" data-name="Path 43">
                                      <path id="Path_106" data-name="Path 106" class="cls-4" d="M755.281,140.672c-16.467,0-31.208-8.612-43.4-25.585C697.75,95.706,688.24,68.1,685.787,39.359,682.843,5.127,691-25.434,707.611-42.392c16.3-17.2,41.355-19.946,70.529-7.724h0C813.3-35.122,841.458-11.6,856.086,5.421,868.016,19.69,872.477,32.7,870.13,46.366c-3.5,19.92-20.61,37.388-38.581,53.3-15.3,13.121-33.612,27.643-53.41,35.9A57.68,57.68,0,0,1,755.281,140.672Zm-10.7-197.3c-14.457,0-26.848,5.01-36.254,14.931-16.414,16.759-24.467,47.026-21.548,80.972,2.438,28.567,11.881,55.986,25.906,75.226,17.3,24.075,39.793,31.042,65.059,20.145,19.675-8.208,37.906-22.67,53.145-35.736,17.828-15.784,34.806-33.1,38.252-52.715,2.294-13.353-2.1-26.1-13.821-40.126-14.55-16.926-42.574-40.337-77.574-55.263C765.893-54.162,754.731-56.629,744.585-56.629Z"/>
                                    </g>
                                  </g>
                                </g>
                              </g>
                            </g>
                          </g>
                          <g id="Group_147" data-name="Group 147" class="cls-30">
                            <g id="Group_146" data-name="Group 146">
                              <g id="Group_268" data-name="Group 268">
                                <g id="Group_267" data-name="Group 267" class="cls-31">
                                  <g id="Group_145" data-name="Group 145">
                                    <g id="Path_44" data-name="Path 44">
                                      <path id="Path_107" data-name="Path 107" class="cls-4" d="M758.7,130.915c-15.785,0-30.064-7.978-41.377-23.466-12.786-17.263-21.256-41.726-23.237-67.112-2.37-30.108,5.251-57.307,20.385-72.757,14.9-15.658,37.511-18.92,63.656-9.182l0,0c32.005,12.143,57.365,32.872,70.424,48.223,10.83,13.033,15.176,25.708,13.289,38.751-2.336,15.817-13.005,31.353-34.593,50.373-11.628,9.959-29.366,24.039-49.122,31.362A54.257,54.257,0,0,1,758.7,130.915ZM750.245-46.1c-13.97,0-25.981,4.838-35.057,14.375-14.94,15.251-22.455,42.159-20.108,71.984,1.966,25.2,10.366,49.478,23.044,66.6,15.743,21.55,36.367,28.228,59.649,19.318,19.611-7.27,37.254-21.278,48.818-31.182,21.393-18.848,31.96-34.2,34.259-49.763,1.844-12.745-2.43-25.164-13.064-37.963C834.81-7.985,809.6-28.589,777.772-40.666l0,0A79.332,79.332,0,0,0,750.245-46.1Z"/>
                                    </g>
                                  </g>
                                </g>
                              </g>
                            </g>
                          </g>
                          <g id="Group_150" data-name="Group 150" class="cls-32">
                            <g id="Group_149" data-name="Group 149">
                              <g id="Group_270" data-name="Group 270">
                                <g id="Group_269" data-name="Group 269" class="cls-33">
                                  <g id="Group_148" data-name="Group 148">
                                    <g id="Path_45" data-name="Path 45">
                                      <path id="Path_108" data-name="Path 108" class="cls-4" d="M761.734,121.482c-14.9,0-28.347-7.331-38.879-21.5C711.4,84.747,703.936,63.29,702.376,41.109c-1.854-26.2,5.19-50.154,18.842-64.075,13.5-14.122,33.707-17.735,56.887-10.169h0c28.791,9.568,51.425,27.68,63.007,41.44,9.86,11.96,13.925,23.826,12.43,36.282-1.886,15.4-11.643,30.351-30.7,47.061-15.894,13.588-30.525,22.43-44.734,27.036A51.522,51.522,0,0,1,761.734,121.482ZM755.539-36c-13.365,0-24.91,4.637-33.6,13.727-13.46,13.725-20.4,37.391-18.563,63.31,1.546,21.993,8.939,43.257,20.282,58.34,14,18.835,33.216,25.355,54.137,18.354,14.086-4.564,28.606-13.344,44.392-26.84C841.046,74.358,850.7,59.6,852.552,44.467c1.46-12.169-2.532-23.788-12.207-35.522-11.49-13.652-33.96-31.629-62.553-41.131A72,72,0,0,0,755.539-36Z"/>
                                    </g>
                                  </g>
                                </g>
                              </g>
                            </g>
                          </g>
                          <g id="Group_153" data-name="Group 153" class="cls-34">
                            <g id="Group_152" data-name="Group 152">
                              <g id="Group_272" data-name="Group 272">
                                <g id="Group_271" data-name="Group 271" class="cls-35">
                                  <g id="Group_151" data-name="Group 151">
                                    <g id="Path_46" data-name="Path 46">
                                      <path id="Path_109" data-name="Path 109" class="cls-4" d="M764.705,112.243c-13.95,0-26.5-6.686-36.212-19.549C718.355,79.419,711.859,60.833,710.67,41.7c-1.407-22.485,5.02-43.312,17.194-55.713,12.088-12.578,29.924-16.381,50.22-10.7h0c21.369,6.09,42.705,19.565,55.686,35.166,8.747,10.692,12.606,21.969,11.475,33.522-1.462,14.678-10.268,28.865-26.919,43.369-13.577,11.58-27.116,19.3-40.244,22.942A48.448,48.448,0,0,1,764.705,112.243ZM760.427-26.279c-12.637,0-23.613,4.4-31.847,12.966-11.981,12.206-18.3,32.749-16.912,54.955,1.176,18.936,7.6,37.324,17.621,50.447,12.468,16.514,29.7,22.635,48.524,17.236,12.991-3.606,26.4-11.256,39.862-22.738,16.447-14.325,25.141-28.3,26.577-42.71,1.1-11.279-2.681-22.31-11.252-32.787-12.855-15.451-34-28.8-55.187-34.84A64.67,64.67,0,0,0,760.427-26.279Z"/>
                                    </g>
                                  </g>
                                </g>
                              </g>
                            </g>
                          </g>
                          <g id="Group_156" data-name="Group 156" class="cls-36">
                            <g id="Group_155" data-name="Group 155">
                              <g id="Group_274" data-name="Group 274">
                                <g id="Group_273" data-name="Group 273" class="cls-37">
                                  <g id="Group_154" data-name="Group 154">
                                    <g id="Path_47" data-name="Path 47">
                                      <path id="Path_110" data-name="Path 110" class="cls-4" d="M767.59,103.195c-12.912,0-24.5-6.031-33.355-17.57-8.832-11.4-14.4-27.247-15.267-43.478-1.034-19.274,4.595-36.652,15.444-47.678,10.654-11.036,26.159-14.871,43.654-10.794h0c18.93,4.5,37.05,15.487,48.47,29.387,7.742,9.551,11.246,19.8,10.416,30.471-1.082,13.67-8.9,26.891-23.238,39.3-8,6.8-20.679,15.63-35.651,19.094A45.129,45.129,0,0,1,767.59,103.195ZM764.852-16.911c-11.758,0-22.039,4.118-29.725,12.078C724.472,6,718.948,23.1,719.966,42.093c.86,16.033,6.349,31.677,15.061,42.921,10.936,14.255,26.14,19.917,42.809,15.937,14.78-3.419,27.315-12.153,35.229-18.879C827.2,69.847,834.9,56.854,835.957,43.456c.81-10.4-2.621-20.417-10.195-29.761C814.479-.04,796.562-10.9,777.837-15.352A57.291,57.291,0,0,0,764.852-16.911Z"/>
                                    </g>
                                  </g>
                                </g>
                              </g>
                            </g>
                          </g>
                          <g id="Group_159" data-name="Group 159" class="cls-38">
                            <g id="Group_158" data-name="Group 158">
                              <g id="Group_276" data-name="Group 276">
                                <g id="Group_275" data-name="Group 275" class="cls-39">
                                  <g id="Group_157" data-name="Group 157">
                                    <g id="Path_48" data-name="Path 48">
                                      <path id="Path_111" data-name="Path 111" class="cls-4" d="M770.318,94.313c-11.755,0-22.295-5.362-30.238-15.549-7.662-9.749-12.214-22.647-12.817-36.317-.707-15.92,4.246-30.484,13.587-39.956,9.227-9.5,22.439-13.21,37.2-10.458h0C794.224-4.883,809.683,4.107,819.4,16.082c6.717,8.367,9.832,17.493,9.259,27.126-.752,12.407-7.549,24.46-19.656,34.855-6.749,5.711-17.594,13.034-30.958,15.5A41.157,41.157,0,0,1,770.318,94.313ZM768.763-7.851c-10.7,0-20.149,3.787-27.2,11.041-9.15,9.278-14,23.569-13.3,39.213.593,13.463,5.069,26.158,12.6,35.744,9.406,12.066,22.547,17.194,36.994,14.436,13.15-2.43,23.841-9.65,30.493-15.28,11.894-10.213,18.571-22.025,19.307-34.155.557-9.377-2.484-18.273-9.04-26.438C809.051,4.916,793.813-3.942,777.863-6.983h0A49.6,49.6,0,0,0,768.763-7.851Z"/>
                                    </g>
                                  </g>
                                </g>
                              </g>
                            </g>
                          </g>
                          <g id="Group_162" data-name="Group 162" class="cls-40">
                            <g id="Group_161" data-name="Group 161">
                              <g id="Group_278" data-name="Group 278">
                                <g id="Group_277" data-name="Group 277" class="cls-41">
                                  <g id="Group_160" data-name="Group 160">
                                    <g id="Path_49" data-name="Path 49">
                                      <path id="Path_112" data-name="Path 112" class="cls-4" d="M772.826,85.619c-10.461,0-19.837-4.668-26.8-13.46a50.115,50.115,0,0,1-10.464-29.517c-.441-12.771,3.8-24.642,11.626-32.564C754.964,2.125,765.913-1.327,778.026.37h0c13.437,1.92,26.275,9.081,34.341,19.157a34.871,34.871,0,0,1,8,23.476c-.473,10.9-6.217,21.574-16.176,30.056-5.548,4.672-14.588,10.579-26.164,12.185A36.784,36.784,0,0,1,772.826,85.619ZM772.092.949a33.1,33.1,0,0,0-24.19,9.83c-7.639,7.729-11.772,19.331-11.339,31.833a49.129,49.129,0,0,0,10.252,28.932c7.864,9.931,18.9,14.448,31.073,12.71,11.341-1.574,20.212-7.372,25.656-11.959,9.744-8.3,15.363-18.714,15.823-29.331a33.86,33.86,0,0,0-7.775-22.805c-7.916-9.889-20.514-16.914-33.706-18.8A41.819,41.819,0,0,0,772.092.949Z"/>
                                    </g>
                                  </g>
                                </g>
                              </g>
                            </g>
                          </g>
                          <g id="Group_165" data-name="Group 165" class="cls-42">
                            <g id="Group_164" data-name="Group 164">
                              <g id="Group_280" data-name="Group 280">
                                <g id="Group_279" data-name="Group 279" class="cls-43">
                                  <g id="Group_163" data-name="Group 163">
                                    <g id="Path_50" data-name="Path 50">
                                      <path id="Path_113" data-name="Path 113" class="cls-4" d="M775.026,77.07A28.958,28.958,0,0,1,752.062,65.8a38.475,38.475,0,0,1-8.205-23.051c-.235-9.84,3.252-19.136,9.563-25.5C759.73,10.838,768.457,7.8,778,8.687h0a40.369,40.369,0,0,1,27.42,14.658,30.039,30.039,0,0,1,6.645,19.531c-.259,9.3-4.8,18.138-12.8,24.886a38.842,38.842,0,0,1-21.262,9.158A29.643,29.643,0,0,1,775.026,77.07Zm-.249-67.534a28.465,28.465,0,0,0-20.645,8.413c-6.123,6.176-9.5,15.207-9.275,24.78a37.472,37.472,0,0,0,7.992,22.455,28.009,28.009,0,0,0,25.058,10.742A37.853,37.853,0,0,0,798.623,67c7.776-6.563,12.2-15.14,12.446-24.149a29.033,29.033,0,0,0-6.422-18.877A39.358,39.358,0,0,0,777.911,9.683h0C776.856,9.584,775.809,9.536,774.777,9.536Z"/>
                                    </g>
                                  </g>
                                </g>
                              </g>
                            </g>
                          </g>
                          <g id="Group_168" data-name="Group 168" class="cls-44">
                            <g id="Group_167" data-name="Group 167">
                              <g id="Group_282" data-name="Group 282">
                                <g id="Group_281" data-name="Group 281" class="cls-45">
                                  <g id="Group_166" data-name="Group 166">
                                    <g id="Path_51" data-name="Path 51">
                                      <path id="Path_114" data-name="Path 114" class="cls-4" d="M776.791,68.646a23.859,23.859,0,0,1-18.574-8.909A27.378,27.378,0,0,1,752.152,42.8a26.185,26.185,0,0,1,7.4-18.771,24.121,24.121,0,0,1,18.436-7.033,27.827,27.827,0,0,1,20.608,10.561,24.315,24.315,0,0,1,5.183,15.267,25.713,25.713,0,0,1-9.528,19.368,27.62,27.62,0,0,1-16.262,6.428C777.586,68.637,777.188,68.646,776.791,68.646ZM776.6,17.952a23.108,23.108,0,0,0-16.341,6.775,25.18,25.18,0,0,0-7.107,18.054A26.376,26.376,0,0,0,759,59.11a22.868,22.868,0,0,0,18.937,8.508,26.633,26.633,0,0,0,15.677-6.2A24.719,24.719,0,0,0,802.775,42.8a23.305,23.305,0,0,0-4.968-14.629,26.828,26.828,0,0,0-19.871-10.181h-.007C777.486,17.965,777.042,17.952,776.6,17.952Z"/>
                                    </g>
                                  </g>
                                </g>
                              </g>
                            </g>
                          </g>
                          <g id="Path_52" data-name="Path 52">
                            <path id="Path_115" data-name="Path 115" class="cls-4" d="M777.962,60.32a17.515,17.515,0,0,1,0-35.03h.012a17.515,17.515,0,0,1-.008,35.03Zm0-34.53v.5a16.515,16.515,0,0,0,0,33.03h0a16.515,16.515,0,0,0,.008-33.03Z"/>
                          </g>
                        </g>
                      </g>
                    </g>
                  </g>
                </g>
              </g>
            </g>
          </g>
        </g>
      </g>
    </g>
    <g id="Group_173" data-name="Group 173">
      <rect id="Rectangle_260" data-name="Rectangle 260" class="cls-1" width="160" height="36" transform="translate(760.13 24)"/>
      <g id="Group_1" data-name="Group 1">
        <path id="Path_1" data-name="Path 1" class="cls-4" d="M863.093,33.682a7.921,7.921,0,1,0,7.886,7.955V41.6a7.911,7.911,0,0,0-7.887-7.92m0,12.875a4.954,4.954,0,1,1,4.932-4.976V41.6a4.947,4.947,0,0,1-4.932,4.954"/>
        <path id="Path_2" data-name="Path 2" class="cls-4" d="M853.461,46.954h.628v2.967h-.628a6.19,6.19,0,0,1-6.167-6.192V30.121h2.955v3.958h3.816v2.967h-3.816v6.683a3.224,3.224,0,0,0,3.212,3.224"/>
        <path id="Path_3" data-name="Path 3" class="cls-4" d="M889.553,33.682a7.921,7.921,0,1,0,7.886,7.955V41.6a7.911,7.911,0,0,0-7.887-7.92m0,12.875a4.954,4.954,0,1,1,4.932-4.976V41.6a4.947,4.947,0,0,1-4.932,4.954"/>
        <path id="Path_4" data-name="Path 4" class="cls-4" d="M912.244,33.682a7.921,7.921,0,0,0,0,15.842,7.831,7.831,0,0,0,5.054-1.845v1.566h2.825V41.833c0-.077.007-.152.007-.23a7.912,7.912,0,0,0-7.887-7.92m0,12.875a4.954,4.954,0,1,1,4.931-4.976V41.6a4.945,4.945,0,0,1-4.931,4.954"/>
        <path id="Path_5" data-name="Path 5" class="cls-4" d="M879.123,33.683h1.4V36.65h-1.4a3.222,3.222,0,0,0-3.211,3.225V49.3h-2.955V39.875a6.189,6.189,0,0,1,6.166-6.192"/>
        <rect id="Rectangle_2" data-name="Rectangle 2" class="cls-4" width="2.961" height="19.52" transform="translate(899.418 29.724)"/>
        <path id="Path_6" data-name="Path 6" class="cls-4" d="M827.566,40.271v9.416h-2.95V40.271a3.211,3.211,0,1,0-6.421-.112c0,.037,0,.075,0,.112v9.416h-2.959V40.271a3.211,3.211,0,1,0-6.422-.006v9.422h-2.955V40.271A6.15,6.15,0,0,1,816.7,36.253a6.166,6.166,0,0,1,10.865,4.018"/>
        <path id="Path_7" data-name="Path 7" class="cls-4" d="M837.457,34.079a7.921,7.921,0,1,0,7.862,7.979V42a7.916,7.916,0,0,0-7.863-7.92m0,12.875a4.954,4.954,0,1,1,4.932-4.976V42a4.947,4.947,0,0,1-4.932,4.954"/>
        <path id="Path_8" data-name="Path 8" class="cls-4" d="M788.992,51.1a25.931,25.931,0,0,0-2.28-6.295,4.128,4.128,0,0,0-3.535-2.3c-1.118.023-2.083.636-3.286,2.33a28.063,28.063,0,0,0-1.844,3.6s-.435-1.01-.942-2.015a12.548,12.548,0,0,0-.9-1.589c-1.2-1.694-2.175-2.306-3.285-2.33a4.13,4.13,0,0,0-3.537,2.3,25.926,25.926,0,0,0-2.279,6.3h-1.291l6.879-22.673,5.315,17.706.04.029.035-.029L783.4,28.427,790.283,51.1ZM778.049,24a18,18,0,1,0,17.924,18.075V42a17.956,17.956,0,0,0-17.912-18h-.013"/>
      </g>
    </g>
  </g>
</svg>
