<svg id="error" xmlns="http://www.w3.org/2000/svg" viewBox="0 0 502.4 502.4"><defs><style>.cls-1{fill:#a3a3a3;opacity:0.6;}</style></defs><title>icn_closeGrey</title><path class="cls-1" d="M345.93,156.47a13.5,13.5,0,0,0-19.06,0L251.2,232.14l-75.67-75.67-.08-.07a13.57,13.57,0,0,0-9.38-3.74,13.38,13.38,0,0,0-9.68,4.09,13.63,13.63,0,0,0,0,18.7l75.75,75.75-75.63,75.64a13.19,13.19,0,0,0-4.12,9.36,13.36,13.36,0,0,0,3.81,9.65,13.17,13.17,0,0,0,9.67,4.16,13.47,13.47,0,0,0,9.46-3.88l75.87-75.87,75.67,75.67.08.07a13.57,13.57,0,0,0,9.38,3.74,13.38,13.38,0,0,0,9.68-4.09,13.63,13.63,0,0,0,0-18.7L270.26,251.2l75.67-75.67A13.5,13.5,0,0,0,345.93,156.47Zm82.12-82.12A248.75,248.75,0,0,0,251.2,1h0A250.22,250.22,0,0,0,74.27,428.13,250.16,250.16,0,1,0,428.05,74.35ZM251.2,474.5h0v0C128.07,474.5,27.9,374.33,27.9,251.2S128.07,27.9,251.2,27.9,474.5,128.07,474.5,251.19C474.3,374.13,374.13,474.3,251.2,474.5Z"/></svg>