<?xml version="1.0" encoding="utf-8"?>
<!-- Generator: Adobe Illustrator 16.0.0, SVG Export Plug-In . SVG Version: 6.00 Build 0)  -->
<!DOCTYPE svg PUBLIC "-//W3C//DTD SVG 1.1//EN" "http://www.w3.org/Graphics/SVG/1.1/DTD/svg11.dtd">
<svg version="1.1" id="Layer_1" xmlns="http://www.w3.org/2000/svg" xmlns:xlink="http://www.w3.org/1999/xlink" x="0px" y="0px"
	 width="100px" height="100px" viewBox="0 0 100 100" enable-background="new 0 0 100 100" xml:space="preserve">
<g>
	<path fill="#0091a6" d="M50,1c27.02,0,49,21.981,49,49c0,27.019-21.98,49-49,49C22.981,99,1,77.021,1,50C1,22.981,22.982,1,50,1
		 M50,0C22.387,0,0,22.383,0,50s22.387,50,50,50c27.617,0,50-22.383,50-50C100,22.382,77.617,0,50,0L50,0z"/>
	<polygon fill="#0091a6" points="39.766,30.898 72.995,50.084 39.766,69.27 	"/>
</g>
</svg>
